<?xml version="1.0" encoding="UTF-8" standalone="no"?>
<!-- Created with Inkscape (http://www.inkscape.org/) -->

<svg
   width="600"
   height="600"
   viewBox="0 0 158.74999 158.75"
   version="1.1"
   id="svg1"
   inkscape:version="1.3.2 (091e20e, 2023-11-25, custom)"
   sodipodi:docname="MinimapRotated.svg"
   xmlns:inkscape="http://www.inkscape.org/namespaces/inkscape"
   xmlns:sodipodi="http://sodipodi.sourceforge.net/DTD/sodipodi-0.dtd"
   xmlns="http://www.w3.org/2000/svg"
   xmlns:svg="http://www.w3.org/2000/svg">
  <sodipodi:namedview
     id="namedview1"
     pagecolor="#505050"
     bordercolor="#eeeeee"
     borderopacity="1"
     inkscape:showpageshadow="0"
     inkscape:pageopacity="0"
     inkscape:pagecheckerboard="0"
     inkscape:deskcolor="#505050"
     inkscape:document-units="mm"
     inkscape:zoom="1.469457"
     inkscape:cx="201.77521"
     inkscape:cy="286.16012"
     inkscape:window-width="1920"
     inkscape:window-height="1009"
     inkscape:window-x="-8"
     inkscape:window-y="-8"
     inkscape:window-maximized="1"
     inkscape:current-layer="layer1" />
  <defs
     id="defs1" />
  <g
     inkscape:label="Layer 1"
     inkscape:groupmode="layer"
     id="layer1">
    <g
       id="g13"
       transform="translate(-3.3644164e-7,-112.15)"
       style="fill:#496685;fill-opacity:1">
      <path
         d="m 78.04136,113.90022 c -3.652993,0 -7.306071,1.39952 -10.105185,4.19848 l -53.792657,53.78983 -1.63337,1.63329 c -0.363523,0.4601 -0.776281,0.87283 -1.236399,1.23634 -1.2749396,1.00722 -2.8643415,1.63327 -4.6153034,1.63328 -4.1338369,-2e-5 -7.48505082,-3.35105 -7.48507233,-7.48468 h -0.17315788 v 23.95604 44.69926 34.33774 H 33.368695 78.04136 102.0276 v -0.17316 c -4.133849,-2e-5 -7.485049,-3.35105 -7.485069,-7.48467 9e-6,-1.82775 0.680974,-3.48025 1.769311,-4.77995 0.285059,-0.34041 0.596104,-0.65158 0.936603,-0.93655 l 1.768278,-1.76819 53.792657,-53.78984 c 5.59822,-5.59792 5.59822,-14.61136 0,-20.20929 L 88.146543,118.0987 c -2.799111,-2.79896 -6.45219,-4.19848 -10.105183,-4.19848 z"
         style="fill:#496685;stroke:#be8e03;stroke-width:2.00043;stroke-linejoin:round;stroke-miterlimit:5.2;stroke-dasharray:none;fill-opacity:1"
         id="path12" />
      <path
         d="m 78.04136,113.90022 c -3.652993,0 -7.306071,1.39952 -10.105185,4.19848 l -53.792657,53.78983 -1.63337,1.63329 c -0.363523,0.4601 -0.776281,0.87283 -1.236399,1.23634 -1.2749396,1.00722 -2.8643415,1.63327 -4.6153034,1.63328 -4.1338369,-2e-5 -7.48505082,-3.35105 -7.48507233,-7.48468 h -0.17315788 v 23.95604 44.69926 34.33774 H 33.368695 78.04136 102.0276 v -0.17316 c -4.133849,-2e-5 -7.485049,-3.35105 -7.485069,-7.48467 9e-6,-1.82775 0.680974,-3.48025 1.769311,-4.77995 0.285059,-0.34041 0.596104,-0.65158 0.936603,-0.93655 l 1.768278,-1.76819 53.792657,-53.78984 c 5.59822,-5.59792 5.59822,-14.61136 0,-20.20929 L 88.146543,118.0987 c -2.799111,-2.79896 -6.45219,-4.19848 -10.105183,-4.19848 z"
         style="fill:#496685;stroke:#e5be3e;stroke-width:0.75;stroke-linejoin:round;stroke-miterlimit:5.2;stroke-dasharray:none;fill-opacity:1"
         id="path13" />
    </g>
  </g>
</svg>
