<?xml version="1.0" encoding="UTF-8" standalone="no"?>
<!-- Created with Inkscape (http://www.inkscape.org/) -->

<svg
   width="64"
   height="64"
   viewBox="0 0 16.933333 16.933333"
   version="1.1"
   id="svg1"
   inkscape:version="1.3.2 (091e20e, 2023-11-25, custom)"
   sodipodi:docname="Clay.svg"
   xmlns:inkscape="http://www.inkscape.org/namespaces/inkscape"
   xmlns:sodipodi="http://sodipodi.sourceforge.net/DTD/sodipodi-0.dtd"
   xmlns="http://www.w3.org/2000/svg"
   xmlns:svg="http://www.w3.org/2000/svg">
  <sodipodi:namedview
     id="namedview1"
     pagecolor="#505050"
     bordercolor="#eeeeee"
     borderopacity="1"
     inkscape:showpageshadow="0"
     inkscape:pageopacity="0"
     inkscape:pagecheckerboard="0"
     inkscape:deskcolor="#505050"
     inkscape:document-units="mm"
     showgrid="true"
     showguides="true"
     inkscape:zoom="4.0970528"
     inkscape:cx="23.797594"
     inkscape:cy="37.710034"
     inkscape:window-width="1920"
     inkscape:window-height="1009"
     inkscape:window-x="-8"
     inkscape:window-y="-8"
     inkscape:window-maximized="1"
     inkscape:current-layer="layer1">
    <inkscape:grid
       id="grid1"
       units="px"
       originx="0"
       originy="0"
       spacingx="1.0583333"
       spacingy="1.0583333"
       empcolor="#0099e5"
       empopacity="0.30196078"
       color="#0099e5"
       opacity="0.14901961"
       empspacing="5"
       dotted="false"
       gridanglex="30"
       gridanglez="30"
       visible="true"
       snapvisiblegridlinesonly="true" />
  </sodipodi:namedview>
  <defs
     id="defs1" />
  <g
     inkscape:label="Layer 1"
     inkscape:groupmode="layer"
     id="layer1">
    <path
       style="fill:#987052;stroke:none;stroke-width:0.13229167;stroke-linecap:round;stroke-linejoin:round;stroke-dasharray:none"
       d="M 4.5432076,5.937962 4.0377335,5.7144583 3.3916829,6.2494559 3.4856991,7.7212618 3.8893758,8.650876 c 0,0 1.0539377,-0.058552 1.0344204,-0.1171037 C 4.9042789,8.4752198 4.5432076,5.9184447 4.5432076,5.937962 Z"
       id="path4" />
    <path
       style="fill:#624a30;stroke:#000000;stroke-width:0.13229167;stroke-linecap:round;stroke-linejoin:round;stroke-dasharray:none"
       d="M 13.111371,4.4678214 C 12.844052,3.7793024 11.869381,3.2556829 10.968268,3.2246252 10.035249,3.1924685 9.5140633,3.4416687 8.913523,4.1999873 L 8.6033749,5.1624241 10.431201,6.1694924 12.742845,6.0383842 Z"
       id="path3-3"
       sodipodi:nodetypes="csc" />
    <path
       style="fill:#987052;stroke:#000000;stroke-width:0.13229167;stroke-linecap:round;stroke-linejoin:round;stroke-dasharray:none"
       d="m 4.0377337,5.7144584 c 0,0 0.3003854,-1.4011819 2.4809213,-1.8314534 2.1805361,-0.4302711 3.3469638,0.9975362 4.008718,1.6309463 v -0.0276 0.0276 c 0.814881,-1.4240348 3.193678,-1.2972808 4.473096,-0.3515274 1.947195,1.4393774 1.27942,5.0300201 0,6.3970951 -1.279419,1.367074 -4.062706,2.375089 -6.6215433,0.761177 v 0 0 c 0,0 -0.1188227,1.602485 -2.3343887,1.79766 -1.8376165,0.16188 -3.6235655,-0.446708 -3.8382568,-2.558837 v 0 0 C -0.1893302,10.816827 0.19947723,5.7144584 4.0377337,5.7144584 3.8374271,6.441843 3.8880603,6.9938776 4.1295754,7.7212619"
       id="path1"
       sodipodi:nodetypes="ccccscccsscccscc" />
    <path
       style="fill:#624a30;stroke:none;stroke-width:0.13229167;stroke-linecap:round;stroke-linejoin:round;stroke-dasharray:none"
       d="m 8.3789256,12.320696 c 6.717e-4,-0.847712 0.7180162,-1.153772 1.1499216,-1.21898 0.4319046,-0.06521 0.8684718,-0.06072 1.4474888,0.06164 0,0 -0.30021,0.198828 -0.73666,0.589546 -0.6386304,0.57171 -0.219715,1.26224 -0.219715,1.26224 L 9.4882007,12.859825 8.8544588,12.589885 8.3789256,12.320696"
       id="path6"
       sodipodi:nodetypes="cssscccc" />
    <path
       style="fill:none;stroke:#000000;stroke-width:0.13229167;stroke-linecap:round;stroke-linejoin:round;stroke-dasharray:none"
       d="M 9.4534116,6.441843 C 8.8272704,5.967238 8.1051269,5.4793041 7.1780521,5.5280973 6.2509772,5.5768908 5.6639486,6.5039658 5.7810529,7.2553843"
       id="path3"
       sodipodi:nodetypes="csc" />
    <path
       style="fill:none;stroke:#000000;stroke-width:0.13229167;stroke-linecap:round;stroke-linejoin:round;stroke-dasharray:none"
       d="M 8.3789257,12.320696 C 8.2813433,11.250228 9.8689928,10.776931 10.976336,11.163355"
       id="path5"
       sodipodi:nodetypes="cc" />
    <path
       style="fill:#d36b2b;stroke:#000000;stroke-width:0.13229167;stroke-linecap:round;stroke-linejoin:round;stroke-opacity:1;stroke-dasharray:none"
       d="M 10.019961,13.015143 9.4882007,12.859825 8.8544588,12.589885 8.4666666,12.36659"
       id="path7" />
  </g>
</svg>
