<?xml version="1.0" encoding="UTF-8" standalone="no"?>
<!-- Created with Inkscape (http://www.inkscape.org/) -->

<svg
   width="500"
   height="500"
   viewBox="0 0 132.29166 132.29167"
   version="1.1"
   id="svg1"
   xml:space="preserve"
   inkscape:version="1.3.2 (091e20e, 2023-11-25, custom)"
   sodipodi:docname="GiveUp.svg"
   xmlns:inkscape="http://www.inkscape.org/namespaces/inkscape"
   xmlns:sodipodi="http://sodipodi.sourceforge.net/DTD/sodipodi-0.dtd"
   xmlns="http://www.w3.org/2000/svg"
   xmlns:svg="http://www.w3.org/2000/svg"><sodipodi:namedview
     id="namedview1"
     pagecolor="#505050"
     bordercolor="#eeeeee"
     borderopacity="1"
     inkscape:showpageshadow="0"
     inkscape:pageopacity="0"
     inkscape:pagecheckerboard="0"
     inkscape:deskcolor="#505050"
     inkscape:document-units="mm"
     inkscape:zoom="1.0242632"
     inkscape:cx="319.25387"
     inkscape:cy="218.20563"
     inkscape:window-width="1920"
     inkscape:window-height="1009"
     inkscape:window-x="-8"
     inkscape:window-y="-8"
     inkscape:window-maximized="1"
     inkscape:current-layer="layer1" /><defs
     id="defs1" /><g
     inkscape:label="Layer 1"
     inkscape:groupmode="layer"
     id="layer1"><path
       d="M 126.35663,50.429997 C 117.68697,47.281451 111.82965,44.429044 106.04004,36.692851 99.072523,27.382706 90.100558,10.296489 64.839453,14.639417 63.393782,15.291829 36.374347,62.873515 37.610624,62.605998 c 9.404435,-2.035018 17.733553,0.379428 21.922176,2.68459 10.020186,5.514495 12.21087,12.697006 18.833993,20.854541 7.889179,9.716905 20.520919,12.809503 26.819547,13.016777 0.90464,0.02978 16.12371,-24.946542 22.94589,-38.48809 a 62.239788,62.239788 0 0 0 -1.7756,-10.243819 z"
       style="display:inline;fill:#ded4c8;stroke:#2f2114;stroke-width:2;stroke-linecap:round;stroke-linejoin:bevel;stroke-miterlimit:5.2;paint-order:markers fill stroke;stroke-dasharray:none"
       id="path6" /><path
       d="M 13.35319,103.8164 64.839453,14.639417 C 66.448761,11.852014 65.500372,8.3122573 62.712968,6.70295 59.925567,5.093643 56.385807,6.042033 54.776501,8.8294352 L 6.6957153,92.108073 A 65.099884,65.099884 0 0 0 13.35319,103.8164 Z"
       style="fill:#624a30;stroke:#2f2114;stroke-linecap:round;stroke-linejoin:bevel;stroke-miterlimit:5.2;paint-order:markers fill stroke;stroke-width:2;stroke-dasharray:none"
       id="path7" /><circle
       style="display:inline;fill:none;stroke:#233552;stroke-width:7.8121;stroke-linecap:round;stroke-linejoin:bevel;stroke-miterlimit:5.2;stroke-dasharray:none;paint-order:markers fill stroke"
       id="path2"
       cx="66.145828"
       cy="66.145828"
       r="62.239788" /><circle
       style="fill:none;stroke:#be8e03;stroke-width:2.0919;stroke-linecap:round;stroke-linejoin:bevel;stroke-miterlimit:5.2;stroke-dasharray:none;paint-order:markers fill stroke"
       id="circle2"
       cx="66.145836"
       cy="66.145836"
       r="65.099884" /><circle
       style="fill:none;stroke:#e5be3e;stroke-width:1;stroke-linecap:round;stroke-linejoin:bevel;stroke-miterlimit:5.2;stroke-dasharray:none;paint-order:markers fill stroke"
       id="circle3"
       cx="66.145836"
       cy="66.145836"
       r="65.099884" /></g></svg>
