<?xml version="1.0" encoding="UTF-8" standalone="no"?>
<!-- Created with Inkscape (http://www.inkscape.org/) -->

<svg
   width="64"
   height="64"
   viewBox="0 0 16.933333 16.933333"
   version="1.1"
   id="svg1"
   inkscape:version="1.3.2 (091e20e, 2023-11-25, custom)"
   sodipodi:docname="Grain.svg"
   xmlns:inkscape="http://www.inkscape.org/namespaces/inkscape"
   xmlns:sodipodi="http://sodipodi.sourceforge.net/DTD/sodipodi-0.dtd"
   xmlns="http://www.w3.org/2000/svg"
   xmlns:svg="http://www.w3.org/2000/svg">
  <sodipodi:namedview
     id="namedview1"
     pagecolor="#505050"
     bordercolor="#eeeeee"
     borderopacity="1"
     inkscape:showpageshadow="0"
     inkscape:pageopacity="0"
     inkscape:pagecheckerboard="0"
     inkscape:deskcolor="#505050"
     inkscape:document-units="mm"
     showgrid="true"
     showguides="true"
     inkscape:zoom="5.7941076"
     inkscape:cx="30.461982"
     inkscape:cy="32.533051"
     inkscape:window-width="1920"
     inkscape:window-height="1009"
     inkscape:window-x="-8"
     inkscape:window-y="-8"
     inkscape:window-maximized="1"
     inkscape:current-layer="layer1">
    <inkscape:grid
       id="grid1"
       units="px"
       originx="0"
       originy="0"
       spacingx="1.0583333"
       spacingy="1.0583333"
       empcolor="#0099e5"
       empopacity="0.30196078"
       color="#0099e5"
       opacity="0.14901961"
       empspacing="5"
       dotted="false"
       gridanglex="30"
       gridanglez="30"
       visible="true"
       snapvisiblegridlinesonly="true" />
  </sodipodi:namedview>
  <defs
     id="defs1" />
  <g
     inkscape:label="Layer 1"
     inkscape:groupmode="layer"
     id="layer1">
    <path
       style="fill:none;stroke:#000000;stroke-width:0.553821;stroke-linecap:round;stroke-linejoin:round;stroke-dasharray:none;stroke-opacity:1"
       d="M 2.600033,15.71016 C 5.4564374,10.413543 7.5967677,6.5929115 11.150446,5.3008939"
       id="path15"
       sodipodi:nodetypes="cc" />
    <g
       id="g23-0-5-16-16-8"
       transform="matrix(0.61012808,0.58642845,-0.58642845,0.61012808,14.731768,-2.7535574)"
       inkscape:transform-center-x="-2.0053389"
       inkscape:transform-center-y="-2.0300797">
      <path
         style="fill:#be8e03;fill-opacity:1;stroke:#000000;stroke-width:0.140765;stroke-linecap:round;stroke-linejoin:round;stroke-dasharray:none;stroke-opacity:1"
         d="m 3.5549417,4.0473618 0.020622,-1.236348"
         id="path18-14-6-7-3-7"
         sodipodi:nodetypes="cc" />
      <path
         style="fill:#be8e03;fill-opacity:1;stroke:#000000;stroke-width:0.189713;stroke-linecap:round;stroke-linejoin:round;stroke-dasharray:none;stroke-opacity:1"
         d="M 3.5549417,10.118152 C 2.4383367,9.8480273 2.4685847,9.2259143 2.4938877,7.7081893 c 0.02672,-1.602565 0.676334,-2.14313 1.061054,-3.6608273 v 0 0 c 0.270124,1.5176973 1.129695,2.1855633 1.136811,3.6608263 0.0073,1.51768 0.159876,2.213509 -1.136811,2.4099637 z"
         id="path16-8-1-3-78-1"
         sodipodi:nodetypes="cscccsc" />
    </g>
    <g
       id="g23-0-5-16-16"
       transform="matrix(0.80255151,0.2684505,-0.2684505,0.80255151,9.6892293,-2.9599227)"
       inkscape:transform-center-x="-0.70212941"
       inkscape:transform-center-y="-2.8555011">
      <path
         style="fill:#be8e03;fill-opacity:1;stroke:#000000;stroke-width:0.140765;stroke-linecap:round;stroke-linejoin:round;stroke-dasharray:none;stroke-opacity:1"
         d="m 3.5549417,4.0473618 0.020622,-1.236348"
         id="path18-14-6-7-3"
         sodipodi:nodetypes="cc" />
      <path
         style="fill:#be8e03;fill-opacity:1;stroke:#000000;stroke-width:0.189713;stroke-linecap:round;stroke-linejoin:round;stroke-dasharray:none;stroke-opacity:1"
         d="M 3.5549417,10.118152 C 2.4383367,9.8480273 2.4685847,9.2259143 2.4938877,7.7081893 c 0.02672,-1.602565 0.676334,-2.14313 1.061054,-3.6608273 v 0 0 c 0.270124,1.5176973 1.129695,2.1855633 1.136811,3.6608263 0.0073,1.51768 0.159876,2.213509 -1.136811,2.4099637 z"
         id="path16-8-1-3-78"
         sodipodi:nodetypes="cscccsc" />
    </g>
    <g
       id="g23-0-5-16-1"
       transform="matrix(0.14821379,0.83317902,-0.83317902,0.14821379,17.203119,2.0805791)"
       inkscape:transform-center-x="-2.9953995"
       inkscape:transform-center-y="-0.23000048">
      <path
         style="fill:#be8e03;fill-opacity:1;stroke:#000000;stroke-width:0.140765;stroke-linecap:round;stroke-linejoin:round;stroke-dasharray:none;stroke-opacity:1"
         d="m 3.5549417,4.0473618 0.020622,-1.236348"
         id="path18-14-6-7-4"
         sodipodi:nodetypes="cc" />
      <path
         style="fill:#be8e03;fill-opacity:1;stroke:#000000;stroke-width:0.189713;stroke-linecap:round;stroke-linejoin:round;stroke-dasharray:none;stroke-opacity:1"
         d="M 3.5549417,10.118152 C 2.4383367,9.8480273 2.4685847,9.2259143 2.4938877,7.7081893 c 0.02672,-1.602565 0.676334,-2.14313 1.061054,-3.6608273 v 0 0 c 0.270124,1.5176973 1.129695,2.1855633 1.136811,3.6608263 0.0073,1.51768 0.159876,2.213509 -1.136811,2.4099637 z"
         id="path16-8-1-3-6"
         sodipodi:nodetypes="cscccsc" />
    </g>
    <g
       id="g23-0-5-16-4"
       transform="matrix(0.82726843,0.17827378,-0.17827378,0.82726843,7.0226613,-1.2220316)"
       inkscape:transform-center-x="-0.38769769"
       inkscape:transform-center-y="-2.961689">
      <path
         style="fill:#be8e03;fill-opacity:1;stroke:#000000;stroke-width:0.140765;stroke-linecap:round;stroke-linejoin:round;stroke-dasharray:none;stroke-opacity:1"
         d="m 3.5549417,4.0473618 0.020622,-1.236348"
         id="path18-14-6-7-81"
         sodipodi:nodetypes="cc" />
      <path
         style="fill:#be8e03;fill-opacity:1;stroke:#000000;stroke-width:0.189713;stroke-linecap:round;stroke-linejoin:round;stroke-dasharray:none;stroke-opacity:1"
         d="M 3.5549417,10.118152 C 2.4383367,9.8480273 2.4685847,9.2259143 2.4938877,7.7081893 c 0.02672,-1.602565 0.676334,-2.14313 1.061054,-3.6608273 v 0 0 c 0.270124,1.5176973 1.129695,2.1855633 1.136811,3.6608263 0.0073,1.51768 0.159876,2.213509 -1.136811,2.4099637 z"
         id="path16-8-1-3-8"
         sodipodi:nodetypes="cscccsc" />
    </g>
    <g
       id="g23-0-5-16-2"
       transform="matrix(0.19886505,0.82256142,-0.82256142,0.19886505,14.81939,3.4199317)"
       inkscape:transform-center-x="-2.9588146"
       inkscape:transform-center-y="-0.33364625">
      <path
         style="fill:#be8e03;fill-opacity:1;stroke:#000000;stroke-width:0.140765;stroke-linecap:round;stroke-linejoin:round;stroke-dasharray:none;stroke-opacity:1"
         d="m 3.5549417,4.0473618 0.020622,-1.236348"
         id="path18-14-6-7-8"
         sodipodi:nodetypes="cc" />
      <path
         style="fill:#be8e03;fill-opacity:1;stroke:#000000;stroke-width:0.189713;stroke-linecap:round;stroke-linejoin:round;stroke-dasharray:none;stroke-opacity:1"
         d="M 3.5549417,10.118152 C 2.4383367,9.8480273 2.4685847,9.2259143 2.4938877,7.7081893 c 0.02672,-1.602565 0.676334,-2.14313 1.061054,-3.6608273 v 0 0 c 0.270124,1.5176973 1.129695,2.1855633 1.136811,3.6608263 0.0073,1.51768 0.159876,2.213509 -1.136811,2.4099637 z"
         id="path16-8-1-3-7"
         sodipodi:nodetypes="cscccsc" />
    </g>
    <g
       id="g23-0-5-16"
       transform="matrix(0.83056714,0.1622123,-0.1622123,0.83056714,4.8081975,0.80869413)"
       inkscape:transform-center-x="-0.35653091"
       inkscape:transform-center-y="-2.9753645">
      <path
         style="fill:#be8e03;fill-opacity:1;stroke:#000000;stroke-width:0.140765;stroke-linecap:round;stroke-linejoin:round;stroke-dasharray:none;stroke-opacity:1"
         d="m 3.5549417,4.0473618 0.020622,-1.236348"
         id="path18-14-6-7"
         sodipodi:nodetypes="cc" />
      <path
         style="fill:#be8e03;fill-opacity:1;stroke:#000000;stroke-width:0.189713;stroke-linecap:round;stroke-linejoin:round;stroke-dasharray:none;stroke-opacity:1"
         d="M 3.5549417,10.118152 C 2.4383367,9.8480273 2.4685847,9.2259143 2.4938877,7.7081893 c 0.02672,-1.602565 0.676334,-2.14313 1.061054,-3.6608273 v 0 0 c 0.270124,1.5176973 1.129695,2.1855633 1.136811,3.6608263 0.0073,1.51768 0.159876,2.213509 -1.136811,2.4099637 z"
         id="path16-8-1-3"
         sodipodi:nodetypes="cscccsc" />
    </g>
    <g
       id="g23-0-5-3"
       transform="matrix(0.28028541,0.79849527,-0.79849527,0.28028541,12.521269,4.8483102)"
       inkscape:transform-center-x="-2.8690203"
       inkscape:transform-center-y="-0.65907912">
      <path
         style="fill:#be8e03;fill-opacity:1;stroke:#000000;stroke-width:0.140765;stroke-linecap:round;stroke-linejoin:round;stroke-dasharray:none;stroke-opacity:1"
         d="m 3.5549417,4.0473618 0.020622,-1.236348"
         id="path18-14-6-8"
         sodipodi:nodetypes="cc" />
      <path
         style="fill:#be8e03;fill-opacity:1;stroke:#000000;stroke-width:0.189713;stroke-linecap:round;stroke-linejoin:round;stroke-dasharray:none;stroke-opacity:1"
         d="M 3.5549417,10.118152 C 2.4383367,9.8480273 2.4685847,9.2259143 2.4938877,7.7081893 c 0.02672,-1.602565 0.676334,-2.14313 1.061054,-3.6608273 v 0 0 c 0.270124,1.5176973 1.129695,2.1855633 1.136811,3.6608263 0.0073,1.51768 0.159876,2.213509 -1.136811,2.4099637 z"
         id="path16-8-1-31"
         sodipodi:nodetypes="cscccsc" />
    </g>
    <g
       id="g23-0-5-1"
       transform="matrix(0.84333861,-0.07024675,0.07024675,0.84333861,1.1608229,3.4669466)"
       inkscape:transform-center-x="0.078586338"
       inkscape:transform-center-y="-3.0295154">
      <path
         style="fill:#be8e03;fill-opacity:1;stroke:#000000;stroke-width:0.140765;stroke-linecap:round;stroke-linejoin:round;stroke-dasharray:none;stroke-opacity:1"
         d="m 3.5549417,4.0473618 0.020622,-1.236348"
         id="path18-14-6-1"
         sodipodi:nodetypes="cc" />
      <path
         style="fill:#be8e03;fill-opacity:1;stroke:#000000;stroke-width:0.189713;stroke-linecap:round;stroke-linejoin:round;stroke-dasharray:none;stroke-opacity:1"
         d="M 3.5549417,10.118152 C 2.4383367,9.8480273 2.4685847,9.2259143 2.4938877,7.7081893 c 0.02672,-1.602565 0.676334,-2.14313 1.061054,-3.6608273 v 0 0 c 0.270124,1.5176973 1.129695,2.1855633 1.136811,3.6608263 0.0073,1.51768 0.159876,2.213509 -1.136811,2.4099637 z"
         id="path16-8-1-1"
         sodipodi:nodetypes="cscccsc" />
    </g>
    <g
       id="g23-0-5-3-9"
       transform="matrix(0.25149526,0.80802522,-0.80802522,0.25149526,11.457136,7.1395147)"
       inkscape:transform-center-x="-2.905673"
       inkscape:transform-center-y="-0.54041791">
      <path
         style="fill:#be8e03;fill-opacity:1;stroke:#000000;stroke-width:0.140765;stroke-linecap:round;stroke-linejoin:round;stroke-dasharray:none;stroke-opacity:1"
         d="m 3.5549417,4.0473618 0.020622,-1.236348"
         id="path18-14-6-8-0"
         sodipodi:nodetypes="cc" />
      <path
         style="fill:#be8e03;fill-opacity:1;stroke:#000000;stroke-width:0.189713;stroke-linecap:round;stroke-linejoin:round;stroke-dasharray:none;stroke-opacity:1"
         d="M 3.5549417,10.118152 C 2.4383367,9.8480273 2.4685847,9.2259143 2.4938877,7.7081893 c 0.02672,-1.602565 0.676334,-2.14313 1.061054,-3.6608273 v 0 0 c 0.270124,1.5176973 1.129695,2.1855633 1.136811,3.6608263 0.0073,1.51768 0.159876,2.213509 -1.136811,2.4099637 z"
         id="path16-8-1-31-2"
         sodipodi:nodetypes="cscccsc" />
    </g>
    <g
       id="g23-0-5"
       transform="matrix(0.84343654,-0.06906095,0.06906095,0.84343654,-0.05401416,5.5050929)"
       inkscape:transform-center-x="0.07634828"
       inkscape:transform-center-y="-3.0298313">
      <path
         style="fill:#be8e03;fill-opacity:1;stroke:#000000;stroke-width:0.140765;stroke-linecap:round;stroke-linejoin:round;stroke-dasharray:none;stroke-opacity:1"
         d="m 3.5549417,4.0473618 0.020622,-1.236348"
         id="path18-14-6"
         sodipodi:nodetypes="cc" />
      <path
         style="fill:#be8e03;fill-opacity:1;stroke:#000000;stroke-width:0.189713;stroke-linecap:round;stroke-linejoin:round;stroke-dasharray:none;stroke-opacity:1"
         d="M 3.5549417,10.118152 C 2.4383367,9.8480273 2.4685847,9.2259143 2.4938877,7.7081893 c 0.02672,-1.602565 0.676334,-2.14313 1.061054,-3.6608273 v 0 0 c 0.270124,1.5176973 1.129695,2.1855633 1.136811,3.6608263 0.0073,1.51768 0.159876,2.213509 -1.136811,2.4099637 z"
         id="path16-8-1"
         sodipodi:nodetypes="cscccsc" />
    </g>
  </g>
</svg>
