<?xml version="1.0" encoding="UTF-8" standalone="no"?>
<!-- Created with Inkscape (http://www.inkscape.org/) -->

<svg
   width="64"
   height="64"
   viewBox="0 0 16.933333 16.933333"
   version="1.1"
   id="svg1"
   inkscape:version="1.3.2 (091e20e, 2023-11-25, custom)"
   sodipodi:docname="MeatPie.svg"
   xml:space="preserve"
   xmlns:inkscape="http://www.inkscape.org/namespaces/inkscape"
   xmlns:sodipodi="http://sodipodi.sourceforge.net/DTD/sodipodi-0.dtd"
   xmlns="http://www.w3.org/2000/svg"
   xmlns:svg="http://www.w3.org/2000/svg"><sodipodi:namedview
     id="namedview1"
     pagecolor="#505050"
     bordercolor="#eeeeee"
     borderopacity="1"
     inkscape:showpageshadow="0"
     inkscape:pageopacity="0"
     inkscape:pagecheckerboard="0"
     inkscape:deskcolor="#505050"
     inkscape:document-units="mm"
     showgrid="true"
     showguides="true"
     inkscape:zoom="8.1941053"
     inkscape:cx="35.025178"
     inkscape:cy="27.519783"
     inkscape:window-width="1920"
     inkscape:window-height="1009"
     inkscape:window-x="-8"
     inkscape:window-y="-8"
     inkscape:window-maximized="1"
     inkscape:current-layer="layer1"><inkscape:grid
       id="grid1"
       units="px"
       originx="0"
       originy="0"
       spacingx="1.0583333"
       spacingy="1.0583333"
       empcolor="#0099e5"
       empopacity="0.30196078"
       color="#0099e5"
       opacity="0.14901961"
       empspacing="5"
       dotted="false"
       gridanglex="30"
       gridanglez="30"
       visible="true"
       snapvisiblegridlinesonly="true" /></sodipodi:namedview><defs
     id="defs1" /><g
     inkscape:label="Layer 1"
     inkscape:groupmode="layer"
     id="layer1"
     style="display:inline"><g
       id="g11"
       transform="matrix(1.294243,0,0,1.294243,-2.8457422,-3.6823101)"><path
         style="display:inline;fill:#bf2f37;stroke:#2f2114;stroke-width:0.2;stroke-linecap:round;stroke-linejoin:bevel;stroke-miterlimit:5.2;stroke-dasharray:none"
         d="m 14.326598,10.34207 c -0.468266,0.971238 -0.655625,3.21663 -0.655625,3.21663 L 9.0415133,13.425277 4.6006691,12.238008 3.2878231,9.3869361 3.915706,7.7058352 Z"
         id="path11" /><path
         d="M 8.4666667,4.5759481 C 8.0529413,4.5809778 7.6800587,4.8266725 7.512203,5.2048503 7.2846603,5.2778936 7.0655493,5.3557661 6.8528117,5.4363607 6.7040794,5.3422707 6.5290851,5.2919126 6.35,5.2916667 5.8922787,5.2965999 5.5105033,5.6231388 5.4606486,6.0523437 5.3312218,6.1180327 5.2047125,6.1843932 5.0813436,6.251298 4.9784439,6.1957482 4.863416,6.1664586 4.7464803,6.1660319 4.3596218,6.1672871 4.0448845,6.4778892 4.0385132,6.8646973 3.9329256,6.930853 3.8258132,6.9955027 3.7248372,7.0605509 3.6503836,7.0384327 3.5724066,7.0269193 3.4938436,7.0264445 3.0854047,7.0264135 2.7542922,7.3184218 2.7543538,7.6786011 c 9.718e-4,0.00483 0.00201,0.00966 0.0031,0.014469 -0.05551,0.036103 -0.1230535,0.081067 -0.1772501,0.1157552 0,0 0.601616,4.3026947 1.653129,4.8911747 1.0583219,0.59229 4.8445447,1.180381 7.1277303,1.4087 2.283188,0.228318 2.397269,-0.0213 2.397269,-0.350367 0,-0.32907 -0.45274,-0.339204 -1.058333,-0.424263 C 10.583357,13.03678 5.2916665,12.7 4.8823893,11.900049 4.0432113,10.259838 3.5262721,8.6551707 3.7217367,8.4666667 5.292708,6.9516388 6.9277151,6.158497 9.5156977,5.6937093 9.65346,5.6689679 9.4919303,5.4241664 9.4624715,5.2771973 9.4079904,5.0053926 9.3062569,4.756543 9.110555,4.7945394 c -3.374e-4,6.55e-5 -6.962e-4,-6.55e-5 -0.00103,0 C 8.9250668,4.6530519 8.6991364,4.5762283 8.4666667,4.5759481 Z"
         style="fill:#624a30;stroke:#2f2114;stroke-width:0.2;stroke-linecap:round;stroke-linejoin:bevel;stroke-miterlimit:5.2;stroke-dasharray:none"
         id="path8"
         inkscape:label="path8"
         sodipodi:nodetypes="cccccccccccccssscssssscc" /><path
         style="display:inline;fill:#ad8968;stroke:#2f2114;stroke-width:0.2;stroke-linecap:round;stroke-linejoin:bevel;stroke-miterlimit:5.2;stroke-dasharray:none"
         d="M 9.5156977,5.6937093 C 7.6426873,6.1396496 5.2916665,6.6548765 3.7217367,8.4666667 l 0.1620247,0.7573956 c 0,0 8.8917666,1.1683337 10.0652906,1.1570027 0.514337,-0.005 0.691022,-0.138058 0.867615,-0.4261171 C 15.078387,9.5280297 14.816666,9.0222391 12.7,7.7514885 11.682565,7.1406663 9.5156977,5.6937093 9.5156977,5.6937093 Z"
         id="path9"
         sodipodi:nodetypes="cccsssc" /><path
         style="display:inline;fill:#ad8968;stroke:#2f2114;stroke-width:0.2;stroke-linecap:round;stroke-linejoin:bevel;stroke-miterlimit:5.2;stroke-dasharray:none"
         d="m 3.7217365,8.4666666 c 0,0 7.8356435,1.3250413 9.1501775,1.4361154 0.657267,0.055537 1.143455,-0.038909 1.465326,-0.1472384 0.321871,-0.1083299 0.479426,-0.230544 0.479426,-0.230544"
         id="path10"
         inkscape:label="path10"
         sodipodi:nodetypes="cssc" /></g></g></svg>
