<?xml version="1.0" encoding="UTF-8" standalone="no"?>
<!-- Created with Inkscape (http://www.inkscape.org/) -->

<svg
   width="64"
   height="64"
   viewBox="0 0 16.933333 16.933333"
   version="1.1"
   id="svg1"
   inkscape:version="1.3.2 (091e20e, 2023-11-25, custom)"
   sodipodi:docname="Stone.svg"
   xml:space="preserve"
   xmlns:inkscape="http://www.inkscape.org/namespaces/inkscape"
   xmlns:sodipodi="http://sodipodi.sourceforge.net/DTD/sodipodi-0.dtd"
   xmlns="http://www.w3.org/2000/svg"
   xmlns:svg="http://www.w3.org/2000/svg"><sodipodi:namedview
     id="namedview1"
     pagecolor="#505050"
     bordercolor="#eeeeee"
     borderopacity="1"
     inkscape:showpageshadow="0"
     inkscape:pageopacity="0"
     inkscape:pagecheckerboard="0"
     inkscape:deskcolor="#505050"
     inkscape:document-units="mm"
     showgrid="true"
     showguides="true"
     inkscape:zoom="8.1941053"
     inkscape:cx="25.628179"
     inkscape:cy="32.401341"
     inkscape:window-width="1920"
     inkscape:window-height="1009"
     inkscape:window-x="-8"
     inkscape:window-y="-8"
     inkscape:window-maximized="1"
     inkscape:current-layer="layer1"><inkscape:grid
       id="grid1"
       units="px"
       originx="0"
       originy="0"
       spacingx="1.0583333"
       spacingy="1.0583333"
       empcolor="#0099e5"
       empopacity="0.30196078"
       color="#0099e5"
       opacity="0.14901961"
       empspacing="5"
       dotted="false"
       gridanglex="30"
       gridanglez="30"
       visible="true"
       snapvisiblegridlinesonly="true" /></sodipodi:namedview><defs
     id="defs1" /><g
     inkscape:label="Layer 1"
     inkscape:groupmode="layer"
     id="layer1"
     style="display:inline"><g
       id="g31"
       style="display:inline"
       transform="matrix(1.6243315,0,0,1.6243315,-1.4502557,-8.0143936)"
       inkscape:label="Middle"><path
         style="fill:#ad8968;stroke:#ad8968;stroke-width:0.1;stroke-linecap:butt;stroke-linejoin:bevel;stroke-miterlimit:5.2;stroke-dasharray:none;paint-order:normal"
         d="M 3.175,9.2812504 2.8197648,10.54389 2.2832104,11.641666 3.175,12.489161 5.4682889,12.260146 5.1258075,9.3611627 4.0070344,9.5249996 Z"
         id="path28" /><path
         style="fill:#987052;stroke:#987052;stroke-width:0.1;stroke-linecap:butt;stroke-linejoin:bevel;stroke-miterlimit:5.2;stroke-dasharray:none;paint-order:normal"
         d="M 2.1166666,8.0825649 2.6713563,8.3337182 2.625692,9.0757615 3.175,9.2812504 2.8197648,10.54389 2.2832104,11.641666 1.5069189,11.4503 1.0583333,10.753921 1.6895757,9.3383308 Z"
         id="path29" /><path
         style="fill:#cfc0b4;stroke:#cfc0b4;stroke-width:0.1;stroke-linecap:butt;stroke-linejoin:bevel;stroke-miterlimit:5.2;stroke-dasharray:none;paint-order:normal"
         d="M 5.4682889,12.260146 7.408333,12.101015 8.9273527,11.016491 10.833834,10.411439 10.377192,8.7903602 9.8977174,7.9341564 9.5249996,8.4666663 l -1.6935878,3e-7 -1.2215175,0.7666003 -1.4840868,0.1278956 z"
         id="path30" /><path
         style="fill:#ded4c8;stroke:#ded4c8;stroke-width:0.1;stroke-linecap:butt;stroke-linejoin:bevel;stroke-miterlimit:5.2;stroke-dasharray:none;paint-order:normal"
         d="m 2.1166666,8.0825649 0.5546897,0.2511533 v 0 L 2.625692,9.0757615 4.0070344,9.5249994 5.1258075,9.3611625 6.6098943,9.2332669 7.8314118,8.4666666 9.5249996,8.4666663 9.8977174,7.9341564 8.288054,7.408333 6.6898067,7.2834414 4.0755308,7.408333 Z"
         id="path31" /></g><g
       id="g23"
       transform="matrix(2.1946148,0,0,2.1946148,-9.5713347,-11.668692)"
       style="display:inline;stroke:#ded4c8;stroke-width:0.0707614;stroke-dasharray:none"
       inkscape:label="Bottom"><path
         style="fill:#ded4c8;stroke:#ded4c8;stroke-width:0.0707614;stroke-linecap:butt;stroke-linejoin:bevel;stroke-miterlimit:5.2;stroke-dasharray:none;paint-order:normal"
         d="M 6.8059984,10.308404 8.890164,10.833023 10.198826,10.308404 11.135893,9.5595121 10.603701,9.073378 9.9241688,9.1451491 8.4833941,9.3304845 6.7252168,10.308404 Z"
         id="path24"
         sodipodi:nodetypes="ccccccccc" /><path
         style="fill:#987052;stroke:#987052;stroke-width:0.0707614;stroke-linecap:butt;stroke-linejoin:bevel;stroke-miterlimit:5.2;stroke-dasharray:none;paint-order:normal"
         d="m 8.7932262,12.555079 0.096938,-1.722056 -2.1649472,-0.524619 0.064625,0.748892 0.4846897,0.748891 z"
         id="path25" /><path
         style="fill:#ad8968;stroke:#ad8968;stroke-width:0.0707614;stroke-linecap:butt;stroke-linejoin:bevel;stroke-miterlimit:5.2;stroke-dasharray:none;paint-order:normal"
         d="m 10.569202,11.936034 -0.370376,-1.62763 -1.308662,0.524619 -0.096938,1.722056 z"
         id="path26" /><path
         style="fill:#cfc0b4;stroke:#cfc0b4;stroke-width:0.0707614;stroke-linecap:butt;stroke-linejoin:bevel;stroke-miterlimit:5.2;stroke-dasharray:none;paint-order:normal"
         d="m 11.968672,10.473731 -0.399849,-0.5769245 -0.43293,-0.3372945 -0.937067,0.748892 0.370376,1.62763 z"
         id="path27" /></g><g
       id="g49"
       inkscape:label="Top"
       style="display:inline"
       transform="matrix(1.2207246,0,0,1.2207246,0.69588116,-1.5461508)"><path
         style="display:inline;fill:#987052;stroke:#987052;stroke-width:0.13152;stroke-linecap:butt;stroke-linejoin:bevel;stroke-miterlimit:5.2;stroke-dasharray:none;paint-order:normal"
         d="M 2.068753,5.1572739 2.2917052,4.7644534 4.6592435,5.9200399 4.2027226,6.4100521 Z"
         id="path32" /><path
         style="display:inline;fill:#ad8968;stroke:#ad8968;stroke-width:0.13152;stroke-linecap:butt;stroke-linejoin:bevel;stroke-miterlimit:5.2;stroke-dasharray:none;paint-order:normal"
         d="M 4.2027226,6.4100521 6.8636457,5.9200399 6.4428601,5.3802258 4.6592435,5.9200399 4.2027226,6.4100521"
         id="path33" /><path
         style="display:inline;fill:#cfc0b4;stroke:#cfc0b4;stroke-width:0.13152;stroke-linecap:butt;stroke-linejoin:bevel;stroke-miterlimit:5.2;stroke-dasharray:none;paint-order:normal"
         d="M 6.8636457,5.9200399 7.483303,5.0298727 7.122333,4.7856872 6.4428601,5.3802258 Z"
         id="path34" /><path
         style="display:inline;fill:#cfc0b4;stroke:#cfc0b4;stroke-width:0.13152;stroke-linecap:butt;stroke-linejoin:bevel;stroke-miterlimit:5.2;stroke-dasharray:none;paint-order:normal"
         d="m 7.1648001,4.0000464 -0.042468,0.7856408 0.36097,0.2441852 z"
         id="path35" /><path
         style="display:inline;fill:#ded4c8;stroke:#ded4c8;stroke-width:0.13152;stroke-linecap:butt;stroke-linejoin:bevel;stroke-miterlimit:5.2;stroke-dasharray:none;paint-order:normal"
         d="M 7.1648001,4.0000464 6.4853272,2.8959028 H 5.179465 L 3.0136452,3.3948909 2.2917052,4.7644534 4.6592435,5.9200399 6.4428601,5.3802258 7.1223322,4.7856872 Z"
         id="path36" /></g></g></svg>
