<?xml version="1.0" encoding="UTF-8" standalone="no"?>
<!-- Created with Inkscape (http://www.inkscape.org/) -->

<svg
   width="64"
   height="64"
   viewBox="0 0 16.933333 16.933333"
   version="1.1"
   id="svg1"
   inkscape:version="1.3.2 (091e20e, 2023-11-25, custom)"
   sodipodi:docname="WaterSkins.svg"
   xml:space="preserve"
   xmlns:inkscape="http://www.inkscape.org/namespaces/inkscape"
   xmlns:sodipodi="http://sodipodi.sourceforge.net/DTD/sodipodi-0.dtd"
   xmlns="http://www.w3.org/2000/svg"
   xmlns:svg="http://www.w3.org/2000/svg"><sodipodi:namedview
     id="namedview1"
     pagecolor="#505050"
     bordercolor="#eeeeee"
     borderopacity="1"
     inkscape:showpageshadow="0"
     inkscape:pageopacity="0"
     inkscape:pagecheckerboard="0"
     inkscape:deskcolor="#505050"
     inkscape:document-units="mm"
     showgrid="true"
     showguides="true"
     inkscape:zoom="4.0970526"
     inkscape:cx="98.485433"
     inkscape:cy="25.506141"
     inkscape:window-width="1920"
     inkscape:window-height="1009"
     inkscape:window-x="-8"
     inkscape:window-y="-8"
     inkscape:window-maximized="1"
     inkscape:current-layer="layer1"><inkscape:grid
       id="grid1"
       units="px"
       originx="0"
       originy="0"
       spacingx="1.0583333"
       spacingy="1.0583333"
       empcolor="#0099e5"
       empopacity="0.30196078"
       color="#0099e5"
       opacity="0.14901961"
       empspacing="5"
       dotted="false"
       gridanglex="30"
       gridanglez="30"
       visible="true"
       snapvisiblegridlinesonly="true" /></sodipodi:namedview><defs
     id="defs1" /><g
     inkscape:label="Layer 1"
     inkscape:groupmode="layer"
     id="layer1"
     style="display:inline"><path
       d="M 7.8558916,2.9617434 C 8.4965357,3.288013 8.7802683,3.5940258 8.2438081,5.1714939 7.9892555,5.9158915 7.472901,6.5167989 6.729305,6.7262044 6.2989333,6.8735814 5.8954045,7.0900069 5.5345459,7.3669922 4.4943701,8.1566653 3.8814745,9.3858955 3.876766,10.691854 c -6.25e-5,2.31584 1.877186,4.193319 4.1930257,4.193542 0.7878247,-0.0038 1.5586576,-0.229463 2.2241533,-0.651123 1.139064,-0.718911 1.863459,-1.941232 1.947168,-3.285587 0.013,-0.119086 0.01943,-0.220429 0.02072,-0.313676 C 12.282713,8.9223401 10.982488,6.8477216 10.760925,5.2916665 10.582938,4.0416475 10.754009,3.4368566 9.5249997,2.5522416 9.3598402,2.4333632 7.6577285,2.8608222 7.8558916,2.9617434 Z"
       style="fill:#987052;stroke:#624a30;stroke-width:0.0750001;stroke-linecap:square;stroke-linejoin:bevel;stroke-miterlimit:5.2"
       id="path7"
       sodipodi:nodetypes="sscccccccsss" /><path
       style="fill:#cfc0b4;stroke:#645c59;stroke-width:0.0750001;stroke-linecap:square;stroke-linejoin:bevel;stroke-miterlimit:5.2"
       d="M 7.8558916,2.9617434 C 7.3062734,2.4939884 7.0789159,1.2022501 7.4083331,1.0583333 L 8.1584332,0.73062733 C 8.4666158,0.59598759 9.0598729,2.1978601 9.5249996,2.5522416 9.7523046,2.725426 7.8558916,2.9617434 7.8558916,2.9617434 Z"
       id="path8"
       sodipodi:nodetypes="csssc" /><path
       d="M 6.6468172,7.4083331 C 5.5884839,8.7804209 4.5101356,9.0742028 4.5073186,10.583333 c 0.0026,1.50932 0.7603776,2.670468 2.1828757,3.175"
       style="fill:#987052;stroke:#624a30;stroke-width:0.0843298;stroke-linecap:square;stroke-linejoin:bevel;stroke-miterlimit:5.2"
       id="path10"
       sodipodi:nodetypes="ccc" /></g></svg>
