<?xml version="1.0" encoding="UTF-8" standalone="no"?>
<!-- Created with Inkscape (http://www.inkscape.org/) -->

<svg
   width="64"
   height="64"
   viewBox="0 0 16.933333 16.933333"
   version="1.1"
   id="svg1"
   inkscape:version="1.3.2 (091e20e, 2023-11-25, custom)"
   sodipodi:docname="Calligulae.svg"
   xml:space="preserve"
   xmlns:inkscape="http://www.inkscape.org/namespaces/inkscape"
   xmlns:sodipodi="http://sodipodi.sourceforge.net/DTD/sodipodi-0.dtd"
   xmlns="http://www.w3.org/2000/svg"
   xmlns:svg="http://www.w3.org/2000/svg"><sodipodi:namedview
     id="namedview1"
     pagecolor="#505050"
     bordercolor="#eeeeee"
     borderopacity="1"
     inkscape:showpageshadow="0"
     inkscape:pageopacity="0"
     inkscape:pagecheckerboard="0"
     inkscape:deskcolor="#505050"
     inkscape:document-units="mm"
     showgrid="true"
     showguides="true"
     inkscape:zoom="5.6568543"
     inkscape:cx="34.029514"
     inkscape:cy="17.058951"
     inkscape:window-width="1920"
     inkscape:window-height="1009"
     inkscape:window-x="-8"
     inkscape:window-y="-8"
     inkscape:window-maximized="1"
     inkscape:current-layer="layer1"><inkscape:grid
       id="grid1"
       units="px"
       originx="0"
       originy="0"
       spacingx="1.0583333"
       spacingy="1.0583333"
       empcolor="#0099e5"
       empopacity="0.30196078"
       color="#0099e5"
       opacity="0.14901961"
       empspacing="5"
       dotted="false"
       gridanglex="30"
       gridanglez="30"
       visible="true"
       snapvisiblegridlinesonly="true" /></sodipodi:namedview><defs
     id="defs1" /><g
     inkscape:label="Layer 1"
     inkscape:groupmode="layer"
     id="layer1"
     style="display:inline"><g
       id="g10"
       transform="matrix(1.0660243,0,0,1.0660243,-0.91220504,0.54959082)"><rect
         style="display:inline;fill:#624a30;stroke:#ad8968;stroke-width:0.0683407;stroke-linecap:square;stroke-linejoin:round;stroke-miterlimit:5.2;stroke-dasharray:none"
         id="rect1-3-3"
         width="3.1010058"
         height="0.96653062"
         x="-12.098328"
         y="11.688354"
         ry="0.37755105"
         transform="rotate(-90)" /><rect
         style="display:inline;fill:#624a30;stroke:#ad8968;stroke-width:0.069137;stroke-linecap:square;stroke-linejoin:round;stroke-miterlimit:5.2;stroke-dasharray:none"
         id="rect1-3-3-8"
         width="3.1002095"
         height="0.98943949"
         x="-5.2915821"
         y="-4.1662045"
         ry="0.38649982"
         transform="scale(-1)" /><rect
         style="display:inline;fill:#624a30;stroke:#ad8968;stroke-width:0.0786283;stroke-linecap:square;stroke-linejoin:round;stroke-miterlimit:5.2;stroke-dasharray:none"
         id="rect1-3-3-96"
         width="4.1490512"
         height="0.95624304"
         x="-12.093184"
         y="9.5894346"
         ry="0.37353247"
         transform="rotate(-90)" /><rect
         style="display:inline;fill:#624a30;stroke:#ad8968;stroke-width:0.0683407;stroke-linecap:square;stroke-linejoin:round;stroke-miterlimit:5.2;stroke-dasharray:none"
         id="rect1-3-3-9"
         width="3.1010058"
         height="0.96653062"
         x="-12.098328"
         y="13.792418"
         ry="0.37755105"
         transform="rotate(-90)" /><path
         d="m 7.1364308,8.9249112 a 4.6376722,4.6376722 0 0 1 0.3953247,0.968933 L 9.3972747,7.6061292 C 9.5229332,7.4520152 9.4997119,7.2269085 9.3455983,7.10125 L 9.1900522,6.974126 C 9.0359386,6.8484675 8.8103152,6.8716888 8.6846567,7.0258024 Z"
         style="display:inline;fill:#624a30;stroke:#ad8968;stroke-width:0.0943065;stroke-linecap:square;stroke-linejoin:round;stroke-miterlimit:5.2"
         id="path10" /><path
         d="m 6.1938527,7.7244682 a 4.6376722,4.6376722 0 0 1 0.6185669,0.695048 L 8.3389414,6.5477954 C 8.4645998,6.3936818 8.4413785,6.1685751 8.2872649,6.0429167 L 8.1317189,5.9157927 C 7.9776053,5.7901342 7.7519818,5.8133555 7.6263234,5.9674691 Z"
         style="display:inline;fill:#624a30;stroke:#ad8968;stroke-width:0.0943065;stroke-linecap:square;stroke-linejoin:round;stroke-miterlimit:5.2"
         id="path9" /><path
         d="M 6.8620289,4.7603076 C 6.7473735,4.7498857 6.6299901,4.7952448 6.5514536,4.8915658 L 4.9102101,6.9043628 A 4.6376722,4.6376722 0 0 1 5.7297983,7.3529142 L 7.2635548,5.4718921 C 7.3892133,5.3177785 7.365992,5.0926718 7.2118784,4.9670134 L 7.0563323,4.8398893 C 6.9985397,4.7927674 6.9308222,4.7665608 6.8620289,4.7603076 Z"
         style="display:inline;fill:#624a30;stroke:#ad8968;stroke-width:0.0943065;stroke-linecap:square;stroke-linejoin:round;stroke-miterlimit:5.2"
         id="path8" /><path
         d="M 7.7138365,11.154818 A 4.6376722,4.6376722 0 0 0 3.128028,6.5185992 v 0.947116 a 3.6903332,3.6903334 0 0 1 3.6382072,3.6891028 z"
         style="fill:#624a30;stroke:#ad8968;stroke-width:0.116;stroke-linecap:square;stroke-linejoin:round;stroke-miterlimit:5.2;stroke-dasharray:none"
         id="path6" /><path
         d="m 2.5449798,2.6710295 c -0.1988489,0 -0.3586344,0.1597855 -0.3586344,0.3586344 v 8.4790691 0.201021 c 0,0.04954 0.00991,0.09668 0.027905,0.139526 0.009,0.02135 0.020305,0.042 0.033073,0.06098 0.025751,0.03818 0.058456,0.0714 0.096635,0.09715 0.018981,0.01277 0.039633,0.02408 0.060978,0.03307 0.042851,0.018 0.090504,0.02791 0.1400431,0.02791 H 2.7460011 15.518864 c 0.198856,0 0.359152,-0.160295 0.359152,-0.359151 v -0.200504 c 0,-0.198856 -0.160296,-0.359151 -0.359152,-0.359151 H 3.1051523 V 3.0296639 c 0,-0.1988489 -0.1603023,-0.3586344 -0.3591512,-0.3586344 z"
         style="fill:#2f2114;stroke:#ad8968;stroke-width:0.13943;stroke-linecap:square;stroke-linejoin:round;stroke-miterlimit:5.2"
         id="path7" /></g></g></svg>
