<?xml version="1.0" encoding="UTF-8" standalone="no"?>
<!-- Created with Inkscape (http://www.inkscape.org/) -->

<svg
   width="64"
   height="64"
   viewBox="0 0 16.933333 16.933333"
   version="1.1"
   id="svg1"
   inkscape:version="1.3.2 (091e20e, 2023-11-25, custom)"
   sodipodi:docname="DogBowl.svg"
   xml:space="preserve"
   inkscape:export-filename="PrayerBeads.png"
   inkscape:export-xdpi="96"
   inkscape:export-ydpi="96"
   xmlns:inkscape="http://www.inkscape.org/namespaces/inkscape"
   xmlns:sodipodi="http://sodipodi.sourceforge.net/DTD/sodipodi-0.dtd"
   xmlns="http://www.w3.org/2000/svg"
   xmlns:svg="http://www.w3.org/2000/svg"><sodipodi:namedview
     id="namedview1"
     pagecolor="#505050"
     bordercolor="#eeeeee"
     borderopacity="1"
     inkscape:showpageshadow="0"
     inkscape:pageopacity="0"
     inkscape:pagecheckerboard="0"
     inkscape:deskcolor="#505050"
     inkscape:document-units="mm"
     showgrid="true"
     showguides="true"
     inkscape:zoom="8.0000002"
     inkscape:cx="31.312499"
     inkscape:cy="25.312499"
     inkscape:window-width="1920"
     inkscape:window-height="1009"
     inkscape:window-x="-8"
     inkscape:window-y="-8"
     inkscape:window-maximized="1"
     inkscape:current-layer="layer1"><inkscape:grid
       id="grid1"
       units="px"
       originx="0"
       originy="0"
       spacingx="1.0583333"
       spacingy="1.0583333"
       empcolor="#0099e5"
       empopacity="0.30196078"
       color="#0099e5"
       opacity="0.14901961"
       empspacing="5"
       dotted="false"
       gridanglex="30"
       gridanglez="30"
       visible="true"
       snapvisiblegridlinesonly="true" /></sodipodi:namedview><defs
     id="defs1" /><g
     inkscape:label="Layer 1"
     inkscape:groupmode="layer"
     id="layer1"
     style="display:inline"><path
       d="m 2.0345013,7.1668812 -0.839742,2.9062828 -0.093018,0.322461 c -0.012628,0.06395 -0.021589,0.128053 -0.026872,0.192236 -0.00695,0.04009 -0.012465,0.08023 -0.016537,0.120406 2.61e-5,1.949004 3.3168504,3.528984 7.4083334,3.528984 4.0914833,0 7.4083073,-1.57998 7.4083333,-3.528984 -3.98e-4,-0.04325 -0.0025,-0.08649 -0.0062,-0.129708 -0.003,-0.03586 -0.0071,-0.07169 -0.0124,-0.107487 L 15.71377,9.9785961 14.898832,7.1668812 Z"
       style="fill:#518abd;stroke:#61b0d4;stroke-width:0.259362;stroke-linejoin:round;stroke-miterlimit:5.2"
       id="path3" /><ellipse
       style="fill:#61b0d4;stroke:#abd2e3;stroke-width:0.25;stroke-linejoin:round;stroke-miterlimit:5.2;stroke-dasharray:none"
       id="path1"
       cx="8.4666662"
       cy="7.5244818"
       rx="6.4213519"
       ry="3.0588512" /><ellipse
       style="fill:#518abd;stroke:#abd2e3;stroke-width:0.25;stroke-linejoin:round;stroke-miterlimit:5.2;stroke-dasharray:none"
       id="ellipse4"
       cx="8.4666662"
       cy="7.5244818"
       rx="6.4213519"
       ry="3.0588512" /><path
       d="M 8.4666669,4.4657541 A 6.4213519,3.0588512 0 0 0 2.0453534,7.5244821 6.4213519,3.0588512 0 0 0 2.4954551,8.6406931 6.4213519,3.0588512 0 0 1 8.4666669,6.6986927 6.4213519,3.0588512 0 0 1 14.440462,8.6370761 6.4213519,3.0588512 0 0 0 14.88798,7.5244821 6.4213519,3.0588512 0 0 0 8.4666669,4.4657541 Z"
       style="fill:#61b0d4;stroke:#abd2e3;stroke-width:0.25;stroke-linejoin:round;stroke-miterlimit:5.2"
       id="path6" /></g></svg>
