<?xml version="1.0" encoding="UTF-8" standalone="no"?>
<!-- Created with Inkscape (http://www.inkscape.org/) -->

<svg
   width="64"
   height="64"
   viewBox="0 0 16.933333 16.933333"
   version="1.1"
   id="svg1"
   inkscape:version="1.3.2 (091e20e, 2023-11-25, custom)"
   sodipodi:docname="Purse.svg"
   xml:space="preserve"
   inkscape:export-filename="PrayerBeads.png"
   inkscape:export-xdpi="96"
   inkscape:export-ydpi="96"
   xmlns:inkscape="http://www.inkscape.org/namespaces/inkscape"
   xmlns:sodipodi="http://sodipodi.sourceforge.net/DTD/sodipodi-0.dtd"
   xmlns="http://www.w3.org/2000/svg"
   xmlns:svg="http://www.w3.org/2000/svg"><sodipodi:namedview
     id="namedview1"
     pagecolor="#505050"
     bordercolor="#eeeeee"
     borderopacity="1"
     inkscape:showpageshadow="0"
     inkscape:pageopacity="0"
     inkscape:pagecheckerboard="0"
     inkscape:deskcolor="#505050"
     inkscape:document-units="mm"
     showgrid="true"
     showguides="true"
     inkscape:zoom="4.0000001"
     inkscape:cx="32.625"
     inkscape:cy="16.375"
     inkscape:window-width="1920"
     inkscape:window-height="1009"
     inkscape:window-x="-8"
     inkscape:window-y="-8"
     inkscape:window-maximized="1"
     inkscape:current-layer="layer1"><inkscape:grid
       id="grid1"
       units="px"
       originx="0"
       originy="0"
       spacingx="1.0583333"
       spacingy="1.0583333"
       empcolor="#0099e5"
       empopacity="0.30196078"
       color="#0099e5"
       opacity="0.14901961"
       empspacing="5"
       dotted="false"
       gridanglex="30"
       gridanglez="30"
       visible="true"
       snapvisiblegridlinesonly="true" /></sodipodi:namedview><defs
     id="defs1" /><g
     inkscape:label="Layer 1"
     inkscape:groupmode="layer"
     id="layer1"
     style="display:inline"><path
       d="m 8.6258811,4.0394075 c -0.3081792,0 -0.5562809,0.2607737 -0.5562809,0.5846932 V 7.1335988 H 9.1821621 V 4.6241007 c 0,-0.3239195 -0.2481016,-0.5846932 -0.556281,-0.5846932 z"
       style="fill:#be8e03;stroke:#e5be3e;stroke-width:0.161664;stroke-linecap:round;stroke-linejoin:round;stroke-miterlimit:5.2"
       id="path7" /><path
       d="M 5.1651882,4.858417 C 4.8947489,5.0137446 4.7959909,5.3676313 4.943758,5.6518834 L 6.088552,7.8540665 7.0648687,7.293316 5.9200746,5.0911329 C 5.7723076,4.8068808 5.4356277,4.7030892 5.1651882,4.858417 Z"
       style="display:inline;fill:#be8e03;stroke:#e5be3e;stroke-width:0.161664;stroke-linecap:round;stroke-linejoin:round;stroke-miterlimit:5.2"
       id="path7-0" /><path
       d="m 9.8961271,3.6622149 c -0.3081792,0 -0.5562809,0.2607738 -0.5562809,0.5846933 V 6.7564063 H 10.452408 V 4.2469082 c 0,-0.3239195 -0.248102,-0.5846933 -0.5562809,-0.5846933 z"
       style="display:inline;fill:#be8e03;stroke:#e5be3e;stroke-width:0.161664;stroke-linecap:round;stroke-linejoin:round;stroke-miterlimit:5.2"
       id="path7-9" /><path
       d="m 3.4034271,12.045235 c -0.286,-0.114794 -0.6130732,0.03467 -0.7337313,0.335279 l -0.1713177,0.426821 -0.763423,1.901995 -0.1713182,0.426822 c -0.1206577,0.300607 0.012122,0.635206 0.2981219,0.75 0.2859993,0.114795 0.6137455,-0.03496 0.7344032,-0.335565 l 0.1713181,-0.426822 0.763423,-1.901994 0.1713178,-0.426822 C 3.822879,12.494341 3.6894269,12.16003 3.4034271,12.045235 Z"
       style="display:inline;fill:#be8e03;stroke:#e5be3e;stroke-width:0.161664;stroke-linecap:round;stroke-linejoin:round;stroke-miterlimit:5.2"
       id="path8"
       inkscape:transform-center-x="0.21047616"
       inkscape:transform-center-y="-0.79513861" /><path
       d="m 11.085385,4.7069732 c -0.308179,0 -0.55628,0.2607738 -0.55628,0.5846933 v 2.5094981 h 1.112561 V 5.2916665 c 0,-0.3239195 -0.248101,-0.5846933 -0.556281,-0.5846933 z"
       style="display:inline;fill:#be8e03;stroke:#e5be3e;stroke-width:0.161664;stroke-linecap:round;stroke-linejoin:round;stroke-miterlimit:5.2"
       id="path7-7" /><path
       d="M 3.1762834,6.5356922 C 5.366826,6.9696679 5.4796151,8.3054831 4.9741873,9.9661749 4.3955534,11.867401 1.8537002,16.103846 5.8214752,16.103846 h 2.6451914 2.6451914 c 3.967775,0 1.425921,-4.236445 0.847288,-6.1376711 C 11.453719,8.305483 11.566507,6.9696679 13.75705,6.5356922 H 8.4666664 Z"
       style="fill:#624a30;stroke:#987052;stroke-width:0.3;stroke-linecap:round;stroke-linejoin:round;stroke-miterlimit:5.2;stroke-dasharray:none"
       id="path5"
       sodipodi:nodetypes="csscssccc" /><rect
       style="fill:#0e4a79;stroke:#2a68a4;stroke-width:0.0918187;stroke-linecap:round;stroke-linejoin:round;stroke-miterlimit:5.2;stroke-dasharray:none"
       id="rect7"
       width="7.2215562"
       height="1.0665147"
       x="4.8558884"
       y="8.1483831"
       ry="0.53325737" /></g></svg>
