<?xml version="1.0" encoding="UTF-8" standalone="no"?>
<!-- Created with Inkscape (http://www.inkscape.org/) -->

<svg
   width="64"
   height="64"
   viewBox="0 0 16.933333 16.933333"
   version="1.1"
   id="svg1"
   inkscape:version="1.3.2 (091e20e, 2023-11-25, custom)"
   sodipodi:docname="Ocean.svg"
   xmlns:inkscape="http://www.inkscape.org/namespaces/inkscape"
   xmlns:sodipodi="http://sodipodi.sourceforge.net/DTD/sodipodi-0.dtd"
   xmlns="http://www.w3.org/2000/svg"
   xmlns:svg="http://www.w3.org/2000/svg">
  <sodipodi:namedview
     id="namedview1"
     pagecolor="#505050"
     bordercolor="#eeeeee"
     borderopacity="1"
     inkscape:showpageshadow="0"
     inkscape:pageopacity="0"
     inkscape:pagecheckerboard="0"
     inkscape:deskcolor="#505050"
     inkscape:document-units="mm"
     showgrid="true"
     showguides="true"
     inkscape:zoom="8"
     inkscape:cx="44.6875"
     inkscape:cy="36.4375"
     inkscape:window-width="1920"
     inkscape:window-height="1009"
     inkscape:window-x="-8"
     inkscape:window-y="-8"
     inkscape:window-maximized="1"
     inkscape:current-layer="layer1">
    <inkscape:grid
       id="grid1"
       units="px"
       originx="0"
       originy="0"
       spacingx="1.0583333"
       spacingy="1.0583333"
       empcolor="#0099e5"
       empopacity="0.30196078"
       color="#0099e5"
       opacity="0.14901961"
       empspacing="5"
       dotted="false"
       gridanglex="30"
       gridanglez="30"
       visible="true"
       snapvisiblegridlinesonly="true" />
  </sodipodi:namedview>
  <defs
     id="defs1" />
  <g
     inkscape:label="Layer 1"
     inkscape:groupmode="layer"
     id="layer1">
    <path
       d="M 4.8057832,5.5714078 A 3.4172923,3.4172923 0 0 1 3.0659039,6.0719628 3.4172923,3.4172923 0 0 1 1.7025473,5.7751738 3.4172923,3.4172923 0 0 1 0.41104984,6.0640868 V 8.0795905 H 16.522283 V 6.0197908 a 3.4172923,3.4172923 0 0 1 -1.275255,-0.448383 3.4172923,3.4172923 0 0 1 -1.740372,0.500555 3.4172923,3.4172923 0 0 1 -1.740371,-0.500555 3.4172923,3.4172923 0 0 1 -1.739879,0.500555 3.4172923,3.4172923 0 0 1 -1.740372,-0.500555 3.4172923,3.4172923 0 0 1 -1.7398793,0.500555 3.4172923,3.4172923 0 0 1 -1.7403715,-0.500555 z"
       style="fill:#61b0d4;stroke:#0c0805;stroke-width:0.142818;stroke-linecap:round;stroke-linejoin:round;stroke-miterlimit:5.2"
       id="path42" />
    <path
       d="M 4.8057833,7.0714078 A 3.4172923,3.4172923 0 0 1 3.065904,7.5719628 3.4172923,3.4172923 0 0 1 1.7025474,7.2751738 3.4172923,3.4172923 0 0 1 0.41104989,7.5640868 v 2.015504 H 16.522283 v -2.0598 a 3.4172923,3.4172923 0 0 1 -1.275255,-0.448383 3.4172923,3.4172923 0 0 1 -1.740372,0.500555 3.4172923,3.4172923 0 0 1 -1.740371,-0.500555 3.4172923,3.4172923 0 0 1 -1.739879,0.500555 3.4172923,3.4172923 0 0 1 -1.7403719,-0.500555 3.4172923,3.4172923 0 0 1 -1.7398793,0.500555 3.4172923,3.4172923 0 0 1 -1.7403715,-0.500555 z"
       style="fill:#518abd;stroke:#0c0805;stroke-width:0.142818;stroke-linecap:round;stroke-linejoin:round;stroke-miterlimit:5.2"
       id="path36" />
    <path
       d="M 4.8057833,8.5714078 A 3.4172923,3.4172923 0 0 1 3.065904,9.0719628 3.4172923,3.4172923 0 0 1 1.7025474,8.7751738 3.4172923,3.4172923 0 0 1 0.41104987,9.0640868 V 11.07959 H 16.522283 V 9.0197908 a 3.4172923,3.4172923 0 0 1 -1.275255,-0.448383 3.4172923,3.4172923 0 0 1 -1.740372,0.500555 3.4172923,3.4172923 0 0 1 -1.740371,-0.500555 3.4172923,3.4172923 0 0 1 -1.739879,0.500555 3.4172923,3.4172923 0 0 1 -1.7403719,-0.500555 3.4172923,3.4172923 0 0 1 -1.7398793,0.500555 3.4172923,3.4172923 0 0 1 -1.7403715,-0.500555 z"
       style="fill:#2a68a4;stroke:#0c0805;stroke-width:0.142818;stroke-linecap:round;stroke-linejoin:round;stroke-miterlimit:5.2"
       id="path37" />
    <path
       d="M 4.8057832,10.071408 A 3.4172923,3.4172923 0 0 1 3.0659039,10.571963 3.4172923,3.4172923 0 0 1 1.7025473,10.275174 3.4172923,3.4172923 0 0 1 0.41104986,10.564087 v 2.015504 H 16.522283 v -2.0598 a 3.4172923,3.4172923 0 0 1 -1.275255,-0.448383 3.4172923,3.4172923 0 0 1 -1.740372,0.500555 3.4172923,3.4172923 0 0 1 -1.740371,-0.500555 3.4172923,3.4172923 0 0 1 -1.739879,0.500555 3.4172923,3.4172923 0 0 1 -1.740372,-0.500555 3.4172923,3.4172923 0 0 1 -1.7398793,0.500555 3.4172923,3.4172923 0 0 1 -1.7403715,-0.500555 z"
       style="fill:#0e4a79;stroke:#0c0805;stroke-width:0.142818;stroke-linecap:round;stroke-linejoin:round;stroke-miterlimit:5.2"
       id="path38" />
  </g>
</svg>
