<?xml version="1.0" encoding="UTF-8" standalone="no"?>
<!-- Created with Inkscape (http://www.inkscape.org/) -->

<svg
   width="500"
   height="500"
   viewBox="0 0 132.29166 132.29167"
   version="1.1"
   id="svg1"
   xml:space="preserve"
   inkscape:version="1.3.2 (091e20e, 2023-11-25, custom)"
   sodipodi:docname="Add.svg"
   xmlns:inkscape="http://www.inkscape.org/namespaces/inkscape"
   xmlns:sodipodi="http://sodipodi.sourceforge.net/DTD/sodipodi-0.dtd"
   xmlns="http://www.w3.org/2000/svg"
   xmlns:svg="http://www.w3.org/2000/svg"><sodipodi:namedview
     id="namedview1"
     pagecolor="#505050"
     bordercolor="#eeeeee"
     borderopacity="1"
     inkscape:showpageshadow="0"
     inkscape:pageopacity="0"
     inkscape:pagecheckerboard="0"
     inkscape:deskcolor="#505050"
     inkscape:document-units="mm"
     inkscape:zoom="1.0242632"
     inkscape:cx="79.081236"
     inkscape:cy="180.12948"
     inkscape:window-width="1920"
     inkscape:window-height="1009"
     inkscape:window-x="-8"
     inkscape:window-y="-8"
     inkscape:window-maximized="1"
     inkscape:current-layer="layer1"
     showgrid="true"
     showguides="true"><inkscape:grid
       id="grid1"
       units="mm"
       originx="0"
       originy="0"
       spacingx="0.99999995"
       spacingy="1"
       empcolor="#0099e5"
       empopacity="0.30196078"
       color="#0099e5"
       opacity="0.14901961"
       empspacing="5"
       dotted="false"
       gridanglex="30"
       gridanglez="30"
       visible="true" /></sodipodi:namedview><defs
     id="defs1" /><g
     inkscape:label="Layer 1"
     inkscape:groupmode="layer"
     id="layer1"><path
       d="m 65.729405,5.7384025 c -6.462565,0 -11.665558,5.2029925 -11.665558,11.6655575 V 54.064467 H 17.40334 c -6.462552,0 -11.6649337,5.203006 -11.6649337,11.665559 v 0.832228 c 0,6.462553 5.2023817,11.664934 11.6649337,11.664934 H 54.063847 V 114.8877 c 0,6.46258 5.202967,11.66556 11.665558,11.66556 h 0.832228 c 6.462591,0 11.665558,-5.20298 11.665558,-11.66556 V 78.227188 h 36.660499 c 6.46259,0 11.66557,-5.202356 11.66557,-11.664934 v -0.832228 c 0,-6.462578 -5.20298,-11.665559 -11.66557,-11.665559 H 78.227191 V 17.40396 c 0,-6.462565 -5.202993,-11.6655575 -11.665558,-11.6655575 z"
       style="fill:#ded4c8;stroke:#cfc0b4;stroke-width:4.18514;stroke-linejoin:round;stroke-miterlimit:5.2"
       id="path3" /></g></svg>
