<?xml version="1.0" encoding="UTF-8" standalone="no"?>
<!-- Created with Inkscape (http://www.inkscape.org/) -->

<svg
   width="200"
   height="322"
   viewBox="0 0 52.916665 85.195833"
   version="1.1"
   id="svg1"
   xml:space="preserve"
   inkscape:version="1.3.2 (091e20e, 2023-11-25, custom)"
   sodipodi:docname="CardBorderCorrupted.svg"
   xmlns:inkscape="http://www.inkscape.org/namespaces/inkscape"
   xmlns:sodipodi="http://sodipodi.sourceforge.net/DTD/sodipodi-0.dtd"
   xmlns="http://www.w3.org/2000/svg"
   xmlns:svg="http://www.w3.org/2000/svg"><sodipodi:namedview
     id="namedview1"
     pagecolor="#505050"
     bordercolor="#eeeeee"
     borderopacity="1"
     inkscape:showpageshadow="0"
     inkscape:pageopacity="0"
     inkscape:pagecheckerboard="0"
     inkscape:deskcolor="#505050"
     inkscape:document-units="mm"
     inkscape:zoom="1.7946681"
     inkscape:cx="98.62548"
     inkscape:cy="144.03778"
     inkscape:window-width="1920"
     inkscape:window-height="1009"
     inkscape:window-x="-8"
     inkscape:window-y="-8"
     inkscape:window-maximized="1"
     inkscape:current-layer="layer1" /><defs
     id="defs1"><filter
       x="-1.386044"
       width="3.772088"
       y="-0.85484728"
       height="2.7096946"
       style="color-interpolation-filters:sRGB;"
       inkscape:label="Felt Feather"
       id="filter10"><feGaussianBlur
         stdDeviation="15 15"
         result="blur"
         id="feGaussianBlur7" /><feComposite
         in="SourceGraphic"
         in2="blur"
         operator="atop"
         result="composite1"
         id="feComposite7" /><feComposite
         in2="composite1"
         operator="in"
         result="composite2"
         id="feComposite8" /><feComposite
         in2="composite2"
         operator="in"
         result="composite3"
         id="feComposite9" /><feTurbulence
         type="fractalNoise"
         numOctaves="3"
         seed="1"
         baseFrequency="0.05 0.05"
         result="turbulence"
         id="feTurbulence9" /><feDisplacementMap
         in="blur"
         in2="turbulence"
         xChannelSelector="R"
         scale="30"
         yChannelSelector="G"
         result="map"
         id="feDisplacementMap9" /><feColorMatrix
         values="1 0 0 0 0 0 1 0 0 0 0 0 1 0 0 0 0 0 1 -0 "
         result="colormatrix"
         id="feColorMatrix9" /><feComposite
         in="composite3"
         in2="colormatrix"
         operator="atop"
         result="fbSourceGraphic"
         id="feComposite10" /><feColorMatrix
         result="fbSourceGraphicAlpha"
         in="fbSourceGraphic"
         values="0 0 0 -1 0 0 0 0 -1 0 0 0 0 -1 0 0 0 0 1 0"
         id="feColorMatrix10" /><feGaussianBlur
         id="feGaussianBlur10"
         stdDeviation="15 15"
         result="blur"
         in="fbSourceGraphic" /><feComposite
         id="feComposite11"
         in="fbSourceGraphic"
         in2="blur"
         operator="atop"
         result="composite1" /><feComposite
         id="feComposite12"
         in2="composite1"
         operator="in"
         result="composite2" /><feComposite
         id="feComposite13"
         in2="composite2"
         operator="in"
         result="composite3" /><feTurbulence
         id="feTurbulence13"
         type="fractalNoise"
         numOctaves="3"
         seed="1"
         baseFrequency="0.05 0.05"
         result="turbulence" /><feDisplacementMap
         id="feDisplacementMap13"
         in="blur"
         in2="turbulence"
         xChannelSelector="R"
         scale="30"
         yChannelSelector="G"
         result="map" /><feColorMatrix
         id="feColorMatrix13"
         values="1 0 0 0 0 0 1 0 0 0 0 0 1 0 0 0 0 0 1 -0 "
         result="colormatrix" /><feComposite
         id="feComposite14"
         in="composite3"
         in2="colormatrix"
         operator="atop"
         result="composite4" /></filter><filter
       x="-0.24034744"
       width="1.4806949"
       y="-0.14823485"
       height="1.2964697"
       style="color-interpolation-filters:sRGB;"
       inkscape:label="Felt Feather"
       id="filter173"><feGaussianBlur
         stdDeviation="5 5"
         result="blur"
         id="feGaussianBlur170" /><feComposite
         in="SourceGraphic"
         in2="blur"
         operator="atop"
         result="composite1"
         id="feComposite170" /><feComposite
         in2="composite1"
         operator="in"
         result="composite2"
         id="feComposite171" /><feComposite
         in2="composite2"
         operator="in"
         result="composite3"
         id="feComposite172" /><feTurbulence
         type="fractalNoise"
         numOctaves="2"
         seed="1"
         baseFrequency="0.05 0.05"
         result="turbulence"
         id="feTurbulence172" /><feDisplacementMap
         in="blur"
         in2="turbulence"
         xChannelSelector="R"
         scale="30"
         yChannelSelector="G"
         result="map"
         id="feDisplacementMap172" /><feColorMatrix
         values="1 0 0 0 0 0 1 0 0 0 0 0 1 0 0 0 0 0 2.14724 -0 "
         result="colormatrix"
         id="feColorMatrix172" /><feComposite
         in="composite3"
         in2="colormatrix"
         operator="atop"
         result="composite4"
         id="feComposite173" /></filter></defs><g
     inkscape:label="Layer 1"
     inkscape:groupmode="layer"
     id="layer1"><rect
       style="display:none;fill:#f9f5ef;fill-opacity:1;stroke:none;stroke-width:0.970264;stroke-linejoin:round;stroke-miterlimit:5.2;stroke-dasharray:none"
       id="rect3"
       width="51.946404"
       height="84.225571"
       x="0.48513153"
       y="0.48513153"
       ry="8.3765688" /><path
       d="m 52.40662,76.829419 c -0.638317,-0.534478 -1.512442,-0.814975 -2.448429,-0.734322 -0.0144,-0.05979 -0.03168,-0.11868 -0.05168,-0.176734 -0.320749,-0.842276 -1.19714,-1.368381 -2.186429,-1.312581 -0.8179,-1.487466 -2.750697,-2.100532 -4.510319,-1.43092 -1.296916,0.497351 -2.238367,1.601023 -2.443779,2.865458 -0.505324,-0.04607 -1.02356,0.02638 -1.508435,0.21084 -1.240675,0.475401 -2.073161,1.60707 -2.072225,2.817399 -0.697625,-0.113334 -1.42967,-0.03641 -2.109432,0.222208 -1.544447,0.590318 -2.566502,2.012889 -2.525944,3.516065 -0.445045,0.01206 -0.88955,0.100834 -1.311031,0.260966 -0.869147,0.330949 -1.538913,0.931388 -1.956986,1.642794 h 14.773258 c 0.526324,0 1.038455,-0.05426 1.537374,-0.146245 l 2.853573,-1.099674 c 2.25946,-1.390395 3.796839,-3.819225 3.960481,-6.635254 z"
       style="fill:#91303e;stroke-width:3.40981;stroke-linejoin:round;stroke-miterlimit:5.2"
       id="path194" /><path
       d="M 50.015035,2.9677775 C 48.498473,1.4341793 46.392412,0.4852417 44.055192,0.4852417 H 21.943363 c -0.298357,0.50461257 -0.483685,1.0716245 -0.483691,1.6831014 2.2e-5,1.9922028 1.79485,3.6069974 4.008541,3.607015 0.495963,-3.63e-4 0.987293,-0.083146 1.449524,-0.2449463 0.546691,1.5611002 2.154635,2.6233695 3.973401,2.6256795 0.800027,-2.211e-4 1.582875,-0.2072961 2.255676,-0.5968628 0.472793,1.2445529 1.770855,2.0815273 3.232361,2.0846273 0.570656,-1.7e-4 1.132566,-0.1284759 1.634009,-0.3736206 0.706101,1.2194038 2.105457,1.9859428 3.63337,1.9895428 2.071007,-4.02e-4 3.818191,-1.3877975 4.076753,-3.2370119 1.038832,-0.3298636 1.733712,-1.2136486 1.733745,-2.2050334 -0.0021,-0.067529 -0.0072,-0.1349459 -0.01602,-0.2020548 1.356724,-0.386976 2.33383,-1.4191323 2.574003,-2.6479004 z"
       style="fill:#91303e;stroke-width:3.75075;stroke-linejoin:round;stroke-miterlimit:5.2"
       id="path193" /><path
       d="m 8.8614746,0.4852417 c -4.6406006,0 -8.3762329,3.7356323 -8.3762329,8.3762329 V 76.334359 c 0,4.6406 3.7356323,8.376233 8.3762329,8.376233 H 32.654854 44.055192 c 4.08173,0 7.460762,-2.890909 8.216036,-6.744808 0.103409,-0.52766 0.160197,-1.072572 0.160197,-1.631425 V 8.8614746 c 0,-2.7978203 -1.363316,-5.2598511 -3.458704,-6.7794311 C 47.592614,1.0811864 45.89795,0.4852417 44.055192,0.4852417 H 21.773348 Z M 10.28361,2.8391032 h 12.551172 c 0.70432,0.7269819 1.687002,1.1823466 2.779158,1.1823568 0.479433,-3.89e-4 0.954642,-0.089753 1.401465,-0.2635498 0.528469,1.6768449 2.082446,2.8180997 3.840593,2.8204996 0.773363,-2.37e-4 1.530367,-0.2228543 2.180745,-0.6413045 0.457036,1.336828 1.712082,2.2363566 3.124874,2.2396566 0.551637,-1.81e-4 1.094499,-0.1382053 1.579232,-0.4015259 0.682566,1.3098132 2.03546,2.1328605 3.512447,2.1368205 2.001982,-4.325e-4 3.690901,-1.4904713 3.940845,-3.4767904 1.003051,-0.3539113 1.673762,-1.3013236 1.67535,-2.3647135 2.207831,1.3999524 3.672127,3.8586223 3.672127,6.6771114 v 63.700505 c 0,0.725861 -0.10532,1.425034 -0.286804,2.091862 -0.442497,-0.333575 -0.989478,-0.524855 -1.56993,-0.510563 -0.705302,-1.325527 -2.06787,-2.102274 -3.494361,-2.107365 -0.475497,-0.0017 -0.957977,0.08245 -1.425752,0.260449 -1.378906,0.529275 -2.350525,1.779861 -2.522327,3.24683 -0.546707,-0.0736 -1.102911,-0.0096 -1.618506,0.186552 -1.319148,0.505816 -2.171963,1.79301 -2.123385,3.204973 -0.756711,-0.15963 -1.543181,-0.09824 -2.266011,0.176733 -0.730834,0.279419 -1.334257,0.762332 -1.780253,1.35909 H 10.28361 c -4.3811953,0 -7.9085612,-3.527365 -7.9085612,-7.908561 V 10.747664 c 0,-4.3811947 3.5273659,-7.9085608 7.9085612,-7.9085608 z"
       style="fill:#bf2f37;stroke-width:3.82201;stroke-linejoin:round;stroke-miterlimit:5.2"
       id="path192" /></g></svg>
