<?xml version="1.0" encoding="UTF-8" standalone="no"?>
<!-- Created with Inkscape (http://www.inkscape.org/) -->

<svg
   width="64"
   height="64"
   viewBox="0 0 16.933333 16.933333"
   version="1.1"
   id="svg1"
   inkscape:version="1.3.2 (091e20e, 2023-11-25, custom)"
   sodipodi:docname="Offering.svg"
   xml:space="preserve"
   inkscape:export-filename="PrayerBeads.png"
   inkscape:export-xdpi="96"
   inkscape:export-ydpi="96"
   xmlns:inkscape="http://www.inkscape.org/namespaces/inkscape"
   xmlns:sodipodi="http://sodipodi.sourceforge.net/DTD/sodipodi-0.dtd"
   xmlns="http://www.w3.org/2000/svg"
   xmlns:svg="http://www.w3.org/2000/svg"><sodipodi:namedview
     id="namedview1"
     pagecolor="#505050"
     bordercolor="#eeeeee"
     borderopacity="1"
     inkscape:showpageshadow="0"
     inkscape:pageopacity="0"
     inkscape:pagecheckerboard="0"
     inkscape:deskcolor="#505050"
     inkscape:document-units="mm"
     showgrid="true"
     showguides="true"
     inkscape:zoom="5.6568543"
     inkscape:cx="53.298173"
     inkscape:cy="19.357048"
     inkscape:window-width="1920"
     inkscape:window-height="1009"
     inkscape:window-x="-8"
     inkscape:window-y="-8"
     inkscape:window-maximized="1"
     inkscape:current-layer="layer1"><inkscape:grid
       id="grid1"
       units="px"
       originx="0"
       originy="0"
       spacingx="1.0583333"
       spacingy="1.0583333"
       empcolor="#0099e5"
       empopacity="0.30196078"
       color="#0099e5"
       opacity="0.14901961"
       empspacing="5"
       dotted="false"
       gridanglex="30"
       gridanglez="30"
       visible="true"
       snapvisiblegridlinesonly="true" /></sodipodi:namedview><defs
     id="defs1" /><g
     inkscape:label="Layer 1"
     inkscape:groupmode="layer"
     id="layer1"
     style="display:inline"><path
       d="m 3.3698365,6.5735482 c -0.011741,0.00962 -0.022939,0.019824 -0.034096,0.030149 C 3.2286368,6.7028043 3.1483232,6.8341785 3.112294,6.9875257 L 2.3093346,10.403845 2.1550912,10.535486 C 1.7323758,10.89626 1.6129053,11.473792 1.8166065,11.958972 0.81119415,13.419419 0.27141515,13.883355 0.27141515,13.883355 l 1.07075195,1.254589 0.067897,0.07956 1.0707519,1.25459 c 0,0 0.5470072,-0.465001 2.1674647,-1.235853 0.43734,0.232318 0.9879272,0.189628 1.388679,-0.152405 l 0.6260802,-0.53434 c 0.060682,-0.02853 0.119412,-0.06516 0.172993,-0.110909 l 3.3253311,-2.83806 c 0.321898,-0.27473 0.359885,-0.755233 0.08516,-1.077131 -0.238128,-0.279005 -0.6301197,-0.344293 -0.9401187,-0.17795 l -2.4247707,2.069465 -0.5665693,0.483548 c -0.042403,0.03618 -0.088044,0.066 -0.1351978,0.09124 l 0.689842,-0.588758 2.2996758,-1.9627 c 0.04289,-0.0366 0.08941,-0.06717 0.13702,-0.09279 L 11.289701,8.6527672 C 11.607954,8.3811485 11.645496,7.906268 11.373878,7.5880175 11.130613,7.3029861 10.724348,7.2436801 10.413546,7.4294176 L 5.9083184,11.274484 5.3435709,11.75648 c -0.023611,0.02015 -0.048187,0.03746 -0.073338,0.05427 0.019928,-0.02147 0.042058,-0.04219 0.064905,-0.06169 L 5.901098,11.266023 10.309164,7.5038807 c 0.03322,-0.028352 0.06822,-0.05274 0.104374,-0.074461 L 10.978898,6.946909 C 11.295833,6.6764153 11.333212,6.2035942 11.062719,5.886661 10.792225,5.5697259 10.319406,5.5323456 10.002471,5.8028391 L 4.9318916,10.130416 4.9064883,10.100651 8.7170153,6.8484881 C 9.0365303,6.5757923 9.0747633,6.0993586 8.8020673,5.7798436 8.5293713,5.4603284 8.0523303,5.4226143 7.7328153,5.6953101 L 4.2817831,8.640655 4.5889325,7.3341761 C 4.6850108,6.9252509 4.432864,6.5186098 4.023939,6.4225317 3.7843343,6.3662358 3.5457719,6.4293127 3.3698365,6.5735482 Z"
       style="fill:#987052;stroke:#624a30;stroke-width:0.118958;stroke-linejoin:round;stroke-miterlimit:5.2"
       id="path12" /><path
       sodipodi:type="star"
       style="fill:none;stroke:#61b0d4;stroke-width:0.382625;stroke-linejoin:round;stroke-miterlimit:5.2;stroke-dasharray:none"
       id="path16"
       inkscape:flatsided="true"
       sodipodi:sides="6"
       sodipodi:cx="14.117865"
       sodipodi:cy="-2.9104166"
       sodipodi:r1="4.5741129"
       sodipodi:r2="3.9612982"
       sodipodi:arg1="0.90774792"
       sodipodi:arg2="1.4313467"
       inkscape:rounded="1"
       inkscape:randomized="0"
       d="M 16.933333,0.69453112 C 13.328385,3.5099992 16.644363,3.0445664 12.403622,1.3303242 8.1628816,-0.38391809 10.223947,2.2550868 9.5881542,-2.2746236 8.9523612,-6.8043339 7.6974488,-3.6998962 11.302396,-6.5153643 c 3.604948,-2.8154681 0.28897,-2.3500353 4.529711,-0.6357931 4.240741,1.7142423 2.179675,-0.9247626 2.815468,3.6049478 0.635793,4.52971031 1.890705,1.4252726 -1.714242,4.24074072 z"
       transform="matrix(1.3067633,0,0,1.3067633,-10.106579,11.55454)" /><path
       sodipodi:type="star"
       style="fill:none;stroke:#abd2e3;stroke-width:0.15305;stroke-linejoin:round;stroke-miterlimit:5.2;stroke-dasharray:none"
       id="path17"
       inkscape:flatsided="true"
       sodipodi:sides="6"
       sodipodi:cx="14.117865"
       sodipodi:cy="-2.9104166"
       sodipodi:r1="4.5741129"
       sodipodi:r2="3.9612982"
       sodipodi:arg1="0.90774792"
       sodipodi:arg2="1.4313467"
       inkscape:rounded="1"
       inkscape:randomized="0"
       d="M 16.933333,0.69453112 C 13.328385,3.5099992 16.644363,3.0445664 12.403622,1.3303242 8.1628816,-0.38391809 10.223947,2.2550868 9.5881542,-2.2746236 8.9523612,-6.8043339 7.6974488,-3.6998962 11.302396,-6.5153643 c 3.604948,-2.8154681 0.28897,-2.3500353 4.529711,-0.6357931 4.240741,1.7142423 2.179675,-0.9247626 2.815468,3.6049478 0.635793,4.52971031 1.890705,1.4252726 -1.714242,4.24074072 z"
       transform="matrix(1.3067633,0,0,1.3067633,-10.106579,11.55454)" /><g
       id="g15"
       transform="matrix(0.66736652,0,0,0.66736652,-8.482591,-1.3662436)"><g
         id="g6"
         transform="matrix(2.3512465,0.46300074,-0.46300074,2.3512465,16.750171,-15.808949)"
         style="fill:#084739;stroke-width:0.0552044;stroke-dasharray:none"><path
           style="fill:#084739;stroke:#000000;stroke-width:0.0552044;stroke-linecap:round;stroke-linejoin:round;stroke-dasharray:none"
           d="m 5.2218408,8.5367914 c 2.3825578,2.1134866 1.1912791,4.2269726 0,5.2837166"
           id="path5" /><path
           style="fill:#084739;stroke:#000000;stroke-width:0.0552044;stroke-linecap:round;stroke-linejoin:round;stroke-dasharray:none"
           d="m 5.2215415,8.5367914 c -2.3825578,2.1134866 -1.1912791,4.2269736 0,5.2837166"
           id="path6" /></g><path
         style="fill:#194f35;stroke:#000000;stroke-width:0.132292;stroke-linecap:round;stroke-linejoin:round;stroke-dasharray:none"
         d="m 16.373118,9.0623493 c 7.550222,1.1157957 7.931543,6.9171847 6.927388,10.5988147"
         id="path2-5" /><path
         style="fill:#194f35;stroke:#000000;stroke-width:0.132292;stroke-linecap:round;stroke-linejoin:round;stroke-dasharray:none"
         d="M 16.389269,9.0623496 C 14.380958,16.425606 19.541546,19.103267 23.316657,19.661164"
         id="path2-5-6" /><path
         style="fill:none;stroke:#000000;stroke-width:0.132292;stroke-linecap:round;stroke-linejoin:round;stroke-dasharray:none"
         d="m 16.373118,9.062349 c 3.97165,2.789494 7.241687,9.871682 7.500033,10.56216"
         id="path8" /><path
         style="fill:#39681d;stroke:#000000;stroke-width:0.132292;stroke-linecap:round;stroke-linejoin:round;stroke-dasharray:none"
         d="M 29.921584,9.3740022 C 32.118014,16.683348 27.027775,19.492436 23.268206,20.146939"
         id="path3" /><path
         style="fill:none;stroke:#000000;stroke-width:0.132292;stroke-linecap:round;stroke-linejoin:round;stroke-dasharray:none"
         d="M 25.074761,6.6807291 C 23.100158,10.225833 23.096258,17.563328 23.484704,19.272235"
         id="path20" /><path
         style="fill:#39681d;stroke:#000000;stroke-width:0.132292;stroke-linecap:round;stroke-linejoin:round;stroke-dasharray:none"
         d="M 29.971227,9.3740023 C 22.452095,10.683006 22.219634,16.492266 23.317851,20.146939"
         id="path4" /><path
         style="fill:none;stroke:#000000;stroke-width:0.132292;stroke-linecap:round;stroke-linejoin:round;stroke-dasharray:none"
         d="M 29.921584,9.3740022 C 26.094716,12.892527 23.968944,17.82026 23.317851,20.146939"
         id="path19-3" /></g><g
       id="g13"
       transform="matrix(0.60965969,0.2714614,-0.2714614,0.60965969,-6.1465639,-2.8322067)"><path
         d="m 29.836875,6.5721186 -2.030209,1.890724 1.519005,1.508781 c -0.109622,0.2045674 -0.170123,0.4318424 -0.17673,0.6638344 0,0.826013 0.669625,1.495636 1.495637,1.495636 0.826011,0 1.495635,-0.669623 1.495635,-1.495636 0.826007,0 1.495636,-0.6696294 1.495636,-1.4956354 0,-0.826008 -0.669629,-1.495637 -1.495636,-1.495637 -0.328625,0.0021 -0.647395,0.112547 -0.907021,0.314026 z"
         style="fill:#cfc0b4;stroke:#2f2114;stroke-width:0.28264;stroke-linecap:round;stroke-linejoin:round;stroke-miterlimit:5.2"
         id="path22" /><path
         style="fill:#91303e;stroke:#2f2114;stroke-width:0.28264;stroke-linecap:round;stroke-linejoin:round;stroke-miterlimit:5.2;stroke-dasharray:none"
         d="M 27.593216,0.14243991 C 24.968857,-3.1478464 21.197388,-3.2790225 19.428454,-1.0467965 c -1.768934,2.2322263 -0.926913,5.5133821 0.89745,7.2342711 1.824363,1.720888 3.825433,1.956613 6.161156,2.231762 l 1.212904,0.142874 2.257234,-2.102793 v 0 0 C 28.733197,4.8091566 27.593216,0.14243991 27.593216,0.14243991 Z"
         id="path19"
         sodipodi:nodetypes="csssccccc" /><path
         style="fill:none;stroke:#ded4c8;stroke-width:0.506999;stroke-linecap:round;stroke-linejoin:round;stroke-miterlimit:5.2;stroke-dasharray:none"
         d="m 19.186361,1.3118328 c -0.03226,1.4956359 1.303327,4.3874878 3.843472,5.4007418"
         id="path23"
         sodipodi:nodetypes="cc" /></g><g
       id="g14"
       transform="matrix(0.71575464,0,0,0.71575464,-3.4411783,-2.3781154)"><path
         style="fill:none;stroke:#000000;stroke-width:0.553821;stroke-linecap:round;stroke-linejoin:round;stroke-dasharray:none;stroke-opacity:1"
         d="m 14.828994,22.657549 c 2.856404,-5.296617 4.996735,-9.117248 8.550413,-10.409266"
         id="path15"
         sodipodi:nodetypes="cc" /><g
         id="g23-0-5-16-16-8"
         transform="matrix(0.61012808,0.58642845,-0.58642845,0.61012808,26.960729,4.1938319)"
         inkscape:transform-center-x="-2.0053389"
         inkscape:transform-center-y="-2.0300797"><path
           style="fill:#be8e03;fill-opacity:1;stroke:#000000;stroke-width:0.140765;stroke-linecap:round;stroke-linejoin:round;stroke-dasharray:none;stroke-opacity:1"
           d="m 3.5549417,4.0473618 0.020622,-1.236348"
           id="path18-14-6-7-3-7"
           sodipodi:nodetypes="cc" /><path
           style="fill:#be8e03;fill-opacity:1;stroke:#000000;stroke-width:0.189713;stroke-linecap:round;stroke-linejoin:round;stroke-dasharray:none;stroke-opacity:1"
           d="M 3.5549417,10.118152 C 2.4383367,9.8480273 2.4685847,9.2259143 2.4938877,7.7081893 c 0.02672,-1.602565 0.676334,-2.14313 1.061054,-3.6608273 v 0 0 c 0.270124,1.5176973 1.129695,2.1855633 1.136811,3.6608263 0.0073,1.51768 0.159876,2.213509 -1.136811,2.4099637 z"
           id="path16-8-1-3-78-1"
           sodipodi:nodetypes="cscccsc" /></g><g
         id="g23-0-5-16-16"
         transform="matrix(0.80255151,0.2684505,-0.2684505,0.80255151,21.91819,3.9874666)"
         inkscape:transform-center-x="-0.70212941"
         inkscape:transform-center-y="-2.8555011"><path
           style="fill:#be8e03;fill-opacity:1;stroke:#000000;stroke-width:0.140765;stroke-linecap:round;stroke-linejoin:round;stroke-dasharray:none;stroke-opacity:1"
           d="m 3.5549417,4.0473618 0.020622,-1.236348"
           id="path18-14-6-7-3"
           sodipodi:nodetypes="cc" /><path
           style="fill:#be8e03;fill-opacity:1;stroke:#000000;stroke-width:0.189713;stroke-linecap:round;stroke-linejoin:round;stroke-dasharray:none;stroke-opacity:1"
           d="M 3.5549417,10.118152 C 2.4383367,9.8480273 2.4685847,9.2259143 2.4938877,7.7081893 c 0.02672,-1.602565 0.676334,-2.14313 1.061054,-3.6608273 v 0 0 c 0.270124,1.5176973 1.129695,2.1855633 1.136811,3.6608263 0.0073,1.51768 0.159876,2.213509 -1.136811,2.4099637 z"
           id="path16-8-1-3-78"
           sodipodi:nodetypes="cscccsc" /></g><g
         id="g23-0-5-16-1"
         transform="matrix(0.14821379,0.83317902,-0.83317902,0.14821379,29.43208,9.0279684)"
         inkscape:transform-center-x="-2.9953995"
         inkscape:transform-center-y="-0.23000048"><path
           style="fill:#be8e03;fill-opacity:1;stroke:#000000;stroke-width:0.140765;stroke-linecap:round;stroke-linejoin:round;stroke-dasharray:none;stroke-opacity:1"
           d="m 3.5549417,4.0473618 0.020622,-1.236348"
           id="path18-14-6-7-4"
           sodipodi:nodetypes="cc" /><path
           style="fill:#be8e03;fill-opacity:1;stroke:#000000;stroke-width:0.189713;stroke-linecap:round;stroke-linejoin:round;stroke-dasharray:none;stroke-opacity:1"
           d="M 3.5549417,10.118152 C 2.4383367,9.8480273 2.4685847,9.2259143 2.4938877,7.7081893 c 0.02672,-1.602565 0.676334,-2.14313 1.061054,-3.6608273 v 0 0 c 0.270124,1.5176973 1.129695,2.1855633 1.136811,3.6608263 0.0073,1.51768 0.159876,2.213509 -1.136811,2.4099637 z"
           id="path16-8-1-3-6"
           sodipodi:nodetypes="cscccsc" /></g><g
         id="g23-0-5-16-4"
         transform="matrix(0.82726843,0.17827378,-0.17827378,0.82726843,19.251622,5.7253577)"
         inkscape:transform-center-x="-0.38769769"
         inkscape:transform-center-y="-2.961689"><path
           style="fill:#be8e03;fill-opacity:1;stroke:#000000;stroke-width:0.140765;stroke-linecap:round;stroke-linejoin:round;stroke-dasharray:none;stroke-opacity:1"
           d="m 3.5549417,4.0473618 0.020622,-1.236348"
           id="path18-14-6-7-81"
           sodipodi:nodetypes="cc" /><path
           style="fill:#be8e03;fill-opacity:1;stroke:#000000;stroke-width:0.189713;stroke-linecap:round;stroke-linejoin:round;stroke-dasharray:none;stroke-opacity:1"
           d="M 3.5549417,10.118152 C 2.4383367,9.8480273 2.4685847,9.2259143 2.4938877,7.7081893 c 0.02672,-1.602565 0.676334,-2.14313 1.061054,-3.6608273 v 0 0 c 0.270124,1.5176973 1.129695,2.1855633 1.136811,3.6608263 0.0073,1.51768 0.159876,2.213509 -1.136811,2.4099637 z"
           id="path16-8-1-3-8"
           sodipodi:nodetypes="cscccsc" /></g><g
         id="g23-0-5-16-2"
         transform="matrix(0.19886505,0.82256142,-0.82256142,0.19886505,27.048351,10.367321)"
         inkscape:transform-center-x="-2.9588146"
         inkscape:transform-center-y="-0.33364625"><path
           style="fill:#be8e03;fill-opacity:1;stroke:#000000;stroke-width:0.140765;stroke-linecap:round;stroke-linejoin:round;stroke-dasharray:none;stroke-opacity:1"
           d="m 3.5549417,4.0473618 0.020622,-1.236348"
           id="path18-14-6-7-8"
           sodipodi:nodetypes="cc" /><path
           style="fill:#be8e03;fill-opacity:1;stroke:#000000;stroke-width:0.189713;stroke-linecap:round;stroke-linejoin:round;stroke-dasharray:none;stroke-opacity:1"
           d="M 3.5549417,10.118152 C 2.4383367,9.8480273 2.4685847,9.2259143 2.4938877,7.7081893 c 0.02672,-1.602565 0.676334,-2.14313 1.061054,-3.6608273 v 0 0 c 0.270124,1.5176973 1.129695,2.1855633 1.136811,3.6608263 0.0073,1.51768 0.159876,2.213509 -1.136811,2.4099637 z"
           id="path16-8-1-3-7"
           sodipodi:nodetypes="cscccsc" /></g><g
         id="g23-0-5-16"
         transform="matrix(0.83056714,0.1622123,-0.1622123,0.83056714,17.037158,7.7560834)"
         inkscape:transform-center-x="-0.35653091"
         inkscape:transform-center-y="-2.9753645"><path
           style="fill:#be8e03;fill-opacity:1;stroke:#000000;stroke-width:0.140765;stroke-linecap:round;stroke-linejoin:round;stroke-dasharray:none;stroke-opacity:1"
           d="m 3.5549417,4.0473618 0.020622,-1.236348"
           id="path18-14-6-7"
           sodipodi:nodetypes="cc" /><path
           style="fill:#be8e03;fill-opacity:1;stroke:#000000;stroke-width:0.189713;stroke-linecap:round;stroke-linejoin:round;stroke-dasharray:none;stroke-opacity:1"
           d="M 3.5549417,10.118152 C 2.4383367,9.8480273 2.4685847,9.2259143 2.4938877,7.7081893 c 0.02672,-1.602565 0.676334,-2.14313 1.061054,-3.6608273 v 0 0 c 0.270124,1.5176973 1.129695,2.1855633 1.136811,3.6608263 0.0073,1.51768 0.159876,2.213509 -1.136811,2.4099637 z"
           id="path16-8-1-3"
           sodipodi:nodetypes="cscccsc" /></g><g
         id="g23-0-5-3"
         transform="matrix(0.28028541,0.79849527,-0.79849527,0.28028541,24.75023,11.7957)"
         inkscape:transform-center-x="-2.8690203"
         inkscape:transform-center-y="-0.65907912"><path
           style="fill:#be8e03;fill-opacity:1;stroke:#000000;stroke-width:0.140765;stroke-linecap:round;stroke-linejoin:round;stroke-dasharray:none;stroke-opacity:1"
           d="m 3.5549417,4.0473618 0.020622,-1.236348"
           id="path18-14-6-8"
           sodipodi:nodetypes="cc" /><path
           style="fill:#be8e03;fill-opacity:1;stroke:#000000;stroke-width:0.189713;stroke-linecap:round;stroke-linejoin:round;stroke-dasharray:none;stroke-opacity:1"
           d="M 3.5549417,10.118152 C 2.4383367,9.8480273 2.4685847,9.2259143 2.4938877,7.7081893 c 0.02672,-1.602565 0.676334,-2.14313 1.061054,-3.6608273 v 0 0 c 0.270124,1.5176973 1.129695,2.1855633 1.136811,3.6608263 0.0073,1.51768 0.159876,2.213509 -1.136811,2.4099637 z"
           id="path16-8-1-31"
           sodipodi:nodetypes="cscccsc" /></g><g
         id="g23-0-5-1"
         transform="matrix(0.84333861,-0.07024675,0.07024675,0.84333861,13.389784,10.414336)"
         inkscape:transform-center-x="0.078586338"
         inkscape:transform-center-y="-3.0295154"><path
           style="fill:#be8e03;fill-opacity:1;stroke:#000000;stroke-width:0.140765;stroke-linecap:round;stroke-linejoin:round;stroke-dasharray:none;stroke-opacity:1"
           d="m 3.5549417,4.0473618 0.020622,-1.236348"
           id="path18-14-6-1"
           sodipodi:nodetypes="cc" /><path
           style="fill:#be8e03;fill-opacity:1;stroke:#000000;stroke-width:0.189713;stroke-linecap:round;stroke-linejoin:round;stroke-dasharray:none;stroke-opacity:1"
           d="M 3.5549417,10.118152 C 2.4383367,9.8480273 2.4685847,9.2259143 2.4938877,7.7081893 c 0.02672,-1.602565 0.676334,-2.14313 1.061054,-3.6608273 v 0 0 c 0.270124,1.5176973 1.129695,2.1855633 1.136811,3.6608263 0.0073,1.51768 0.159876,2.213509 -1.136811,2.4099637 z"
           id="path16-8-1-1"
           sodipodi:nodetypes="cscccsc" /></g><g
         id="g23-0-5-3-9"
         transform="matrix(0.25149526,0.80802522,-0.80802522,0.25149526,23.686097,14.086904)"
         inkscape:transform-center-x="-2.905673"
         inkscape:transform-center-y="-0.54041791"><path
           style="fill:#be8e03;fill-opacity:1;stroke:#000000;stroke-width:0.140765;stroke-linecap:round;stroke-linejoin:round;stroke-dasharray:none;stroke-opacity:1"
           d="m 3.5549417,4.0473618 0.020622,-1.236348"
           id="path18-14-6-8-0"
           sodipodi:nodetypes="cc" /><path
           style="fill:#be8e03;fill-opacity:1;stroke:#000000;stroke-width:0.189713;stroke-linecap:round;stroke-linejoin:round;stroke-dasharray:none;stroke-opacity:1"
           d="M 3.5549417,10.118152 C 2.4383367,9.8480273 2.4685847,9.2259143 2.4938877,7.7081893 c 0.02672,-1.602565 0.676334,-2.14313 1.061054,-3.6608273 v 0 0 c 0.270124,1.5176973 1.129695,2.1855633 1.136811,3.6608263 0.0073,1.51768 0.159876,2.213509 -1.136811,2.4099637 z"
           id="path16-8-1-31-2"
           sodipodi:nodetypes="cscccsc" /></g><g
         id="g23-0-5"
         transform="matrix(0.84343654,-0.06906095,0.06906095,0.84343654,12.174947,12.452482)"
         inkscape:transform-center-x="0.07634828"
         inkscape:transform-center-y="-3.0298313"><path
           style="fill:#be8e03;fill-opacity:1;stroke:#000000;stroke-width:0.140765;stroke-linecap:round;stroke-linejoin:round;stroke-dasharray:none;stroke-opacity:1"
           d="m 3.5549417,4.0473618 0.020622,-1.236348"
           id="path18-14-6"
           sodipodi:nodetypes="cc" /><path
           style="fill:#be8e03;fill-opacity:1;stroke:#000000;stroke-width:0.189713;stroke-linecap:round;stroke-linejoin:round;stroke-dasharray:none;stroke-opacity:1"
           d="M 3.5549417,10.118152 C 2.4383367,9.8480273 2.4685847,9.2259143 2.4938877,7.7081893 c 0.02672,-1.602565 0.676334,-2.14313 1.061054,-3.6608273 v 0 0 c 0.270124,1.5176973 1.129695,2.1855633 1.136811,3.6608263 0.0073,1.51768 0.159876,2.213509 -1.136811,2.4099637 z"
           id="path16-8-1"
           sodipodi:nodetypes="cscccsc" /></g></g><path
       d="m 7.3036427,7.6322003 c -0.014661,0.00391 -0.029083,0.00856 -0.043511,0.013348 -0.1384989,0.045956 -0.2659478,0.132364 -0.3621606,0.2570898 l -2.143725,2.7785639 -0.1948719,0.05608 C 4.025311,10.89098 3.6777261,11.367428 3.6625788,11.893416 2.1432587,12.807432 1.4599523,13.006652 1.4599523,13.006652 l 0.4561628,1.585063 0.028925,0.100511 0.4561629,1.585062 c 0,0 0.6903285,-0.197202 2.4845088,-0.229019 0.3021393,0.392364 0.8211053,0.581157 1.3274193,0.435445 l 0.7909963,-0.227639 c 0.06705,-8.9e-4 0.1356736,-0.0099 0.2033685,-0.02945 l 4.2012571,-1.20907 c 0.406689,-0.117042 0.639962,-0.538833 0.522922,-0.945523 -0.101454,-0.352503 -0.431361,-0.574035 -0.782399,-0.550759 l -3.063481,0.881633 -0.7158091,0.206002 c -0.053573,0.01545 -0.1074574,0.0237 -0.1608244,0.02717 L 8.080715,14.385251 10.98615,13.5491 c 0.05419,-0.01559 0.109185,-0.02419 0.163126,-0.02784 l 2.505717,-0.721105 c 0.402083,-0.115713 0.632625,-0.532575 0.516911,-0.934656 -0.103637,-0.360112 -0.44902,-0.582097 -0.808809,-0.541497 l -5.6919528,1.638079 -0.7135078,0.20534 c -0.029831,0.0086 -0.059368,0.01421 -0.089214,0.01908 0.027025,-0.01128 0.05574,-0.02103 0.084604,-0.02934 l 0.7150424,-0.205782 5.5691972,-1.602752 c 0.04198,-0.01208 0.08392,-0.01981 0.125833,-0.02464 l 0.714268,-0.205549 c 0.400418,-0.11523 0.62996,-0.530281 0.514726,-0.930698 C 14.476855,9.7873213 14.061805,9.5577785 13.661387,9.6730143 l -6.406223,1.8436387 -0.010822,-0.0376 4.8142603,-1.38549 C 12.462281,9.9773839 12.694092,9.5593964 12.577919,9.1557177 12.461745,8.7520389 12.04299,8.5204467 11.639311,8.6366208 L 7.2792415,9.8913995 8.099124,8.8288454 C 8.355692,8.4962438 8.294254,8.0217332 7.9616519,7.7651655 7.7667683,7.6148329 7.5234735,7.573621 7.3036427,7.6322003 Z"
       style="fill:#ad8968;stroke:#987052;stroke-width:0.118958;stroke-linejoin:round;stroke-miterlimit:5.2"
       id="path13" /></g></svg>
