<?xml version="1.0" encoding="UTF-8" standalone="no"?>
<!-- Created with Inkscape (http://www.inkscape.org/) -->

<svg
   width="64"
   height="64"
   viewBox="0 0 16.933333 16.933333"
   version="1.1"
   id="svg1"
   inkscape:version="1.3.2 (091e20e, 2023-11-25, custom)"
   sodipodi:docname="Sacrifice.svg"
   xml:space="preserve"
   inkscape:export-filename="PrayerBeads.png"
   inkscape:export-xdpi="96"
   inkscape:export-ydpi="96"
   xmlns:inkscape="http://www.inkscape.org/namespaces/inkscape"
   xmlns:sodipodi="http://sodipodi.sourceforge.net/DTD/sodipodi-0.dtd"
   xmlns="http://www.w3.org/2000/svg"
   xmlns:svg="http://www.w3.org/2000/svg"><sodipodi:namedview
     id="namedview1"
     pagecolor="#505050"
     bordercolor="#eeeeee"
     borderopacity="1"
     inkscape:showpageshadow="0"
     inkscape:pageopacity="0"
     inkscape:pagecheckerboard="0"
     inkscape:deskcolor="#505050"
     inkscape:document-units="mm"
     showgrid="true"
     showguides="true"
     inkscape:zoom="5.6568543"
     inkscape:cx="54.00528"
     inkscape:cy="23.776465"
     inkscape:window-width="1920"
     inkscape:window-height="1009"
     inkscape:window-x="-8"
     inkscape:window-y="-8"
     inkscape:window-maximized="1"
     inkscape:current-layer="layer1"><inkscape:grid
       id="grid1"
       units="px"
       originx="0"
       originy="0"
       spacingx="1.0583333"
       spacingy="1.0583333"
       empcolor="#0099e5"
       empopacity="0.30196078"
       color="#0099e5"
       opacity="0.14901961"
       empspacing="5"
       dotted="false"
       gridanglex="30"
       gridanglez="30"
       visible="true"
       snapvisiblegridlinesonly="true" /></sodipodi:namedview><defs
     id="defs1" /><g
     inkscape:label="Layer 1"
     inkscape:groupmode="layer"
     id="layer1"
     style="display:inline"><path
       sodipodi:type="star"
       style="fill:none;stroke:#91303e;stroke-width:0.382625;stroke-linejoin:round;stroke-miterlimit:5.2;stroke-dasharray:none"
       id="path16"
       inkscape:flatsided="true"
       sodipodi:sides="6"
       sodipodi:cx="14.117865"
       sodipodi:cy="-2.9104166"
       sodipodi:r1="4.5741129"
       sodipodi:r2="3.9612982"
       sodipodi:arg1="0.90774792"
       sodipodi:arg2="1.4313467"
       inkscape:rounded="1"
       inkscape:randomized="0"
       d="M 16.933333,0.69453112 C 13.328385,3.5099992 16.644363,3.0445664 12.403622,1.3303242 8.1628816,-0.38391809 10.223947,2.2550868 9.5881542,-2.2746236 8.9523612,-6.8043339 7.6974488,-3.6998962 11.302396,-6.5153643 c 3.604948,-2.8154681 0.28897,-2.3500353 4.529711,-0.6357931 4.240741,1.7142423 2.179675,-0.9247626 2.815468,3.6049478 0.635793,4.52971031 1.890705,1.4252726 -1.714242,4.24074072 z"
       transform="matrix(1.3659595,0,0,1.2083179,-10.592846,12.150878)" /><path
       sodipodi:type="star"
       style="fill:none;stroke:#bf2f37;stroke-width:0.15305;stroke-linejoin:round;stroke-miterlimit:5.2;stroke-dasharray:none"
       id="path17"
       inkscape:flatsided="true"
       sodipodi:sides="6"
       sodipodi:cx="14.117865"
       sodipodi:cy="-2.9104166"
       sodipodi:r1="4.5741129"
       sodipodi:r2="3.9612982"
       sodipodi:arg1="0.90774792"
       sodipodi:arg2="1.4313467"
       inkscape:rounded="1"
       inkscape:randomized="0"
       d="M 16.933333,0.69453112 C 13.328385,3.5099992 16.644363,3.0445664 12.403622,1.3303242 8.1628816,-0.38391809 10.223947,2.2550868 9.5881542,-2.2746236 8.9523612,-6.8043339 7.6974488,-3.6998962 11.302396,-6.5153643 c 3.604948,-2.8154681 0.28897,-2.3500353 4.529711,-0.6357931 4.240741,1.7142423 2.179675,-0.9247626 2.815468,3.6049478 0.635793,4.52971031 1.890705,1.4252726 -1.714242,4.24074072 z"
       transform="matrix(1.3659595,0,0,1.2083179,-10.592846,12.150878)" /><g
       id="g25"
       transform="rotate(-31.271382,6.7566783,7.3757017)"><path
         d="m 6.7050171,1.4572754 c -0.2395566,0 -0.4325317,0.1929752 -0.4325317,0.4325317 0,0.2395566 0.1929751,0.4325318 0.4325317,0.4325318 H 7.3308187 C 7.0546095,2.5516002 6.8791667,2.8979777 6.8791667,3.2866211 v 2.9812134 c 0,0.3886433 0.1754428,0.7350208 0.451652,0.9642822 H 6.7050171 c -0.239558,0 -0.4325317,0.1929737 -0.4325317,0.4325317 0,0.239558 0.1929737,0.4325318 0.4325317,0.4325318 h 3.5232989 c 0.239558,0 0.432532,-0.1929738 0.432532,-0.4325318 0,-0.239558 -0.192974,-0.4325317 -0.432532,-0.4325317 H 9.6025146 C 9.8787239,7.0028553 10.054167,6.6564778 10.054167,6.2678345 V 3.2866211 c 0,-0.3886434 -0.1754431,-0.7350209 -0.4516524,-0.9642822 h 0.6258014 c 0.239557,0 0.432532,-0.1929752 0.432532,-0.4325318 0,-0.2395565 -0.192975,-0.4325317 -0.432532,-0.4325317 z"
         style="fill:#2f2114;stroke:#624a30;stroke-width:0.179588;stroke-linejoin:round;stroke-miterlimit:5.2"
         id="path25" /><path
         d="m 7.0393636,8.1870972 v 4.5995358 c 1.2132784,0.329972 2.1365074,2.53721 2.1771281,5.205033 -0.00327,0.01682 -0.00586,0.03384 -0.00775,0.05101 1e-7,0.275136 0.1739857,0.498179 0.3886068,0.498179 0.2146211,0 0.3886067,-0.223043 0.3886068,-0.498179 V 12.349401 H 9.5306844 c -0.1197788,0 -0.2160075,-0.123363 -0.2160075,-0.276912 0,-0.153551 0.096229,-0.276913 0.2160075,-0.276913 H 9.9859538 V 11.090707 H 9.5306844 c -0.1197788,0 -0.2160075,-0.12403 -0.2160075,-0.277575 0,-0.153551 0.096229,-0.276914 0.2160075,-0.276914 H 9.9859538 V 9.8313499 H 9.5306844 c -0.1197788,0 -0.2160075,-0.1233617 -0.2160075,-0.2769129 0,-0.1535514 0.096229,-0.2775752 0.2160075,-0.2775752 H 9.9859538 V 8.1870972 Z"
         style="fill:#518abd;stroke:#abd2e3;stroke-width:0.226447;stroke-linejoin:round;stroke-miterlimit:5.2"
         id="path24" /></g><path
       d="m 5.9166933,0.64335098 c -0.010875,0.006195 -0.021409,0.0129208 -0.031919,0.019759 -0.1008681,0.0656719 -0.1844389,0.16131267 -0.2350655,0.2809735 L 3.8750517,3.2341386 3.7313355,3.3197048 C 3.3374685,3.5542051 3.1599878,4.0071266 3.2580969,4.4299233 2.2374967,5.4774021 1.734104,5.7794871 1.734104,5.7794871 l 0.6959817,1.1689701 0.044117,0.074134 0.6959814,1.1689697 c 0,0 0.5094187,-0.3019433 1.9341147,-0.703206 0.3232406,0.2497233 0.7768138,0.2916161 1.1502147,0.069298 L 6.8378644,7.2103344 c 0.053306,-0.014762 0.1061627,-0.036324 0.1560749,-0.0661 L 9.6046731,5.5917534 C 9.9045993,5.4131756 10.002337,5.0278116 9.823765,4.727882 9.6689515,4.4679315 9.3593744,4.3602966 9.0841994,4.4524077 L 8.6137034,4.7766712 6.7846539,5.8196087 c -0.039489,0.02358 -0.080754,0.041436 -0.1226102,0.055368 L 8.6059625,4.7636689 8.9598977,4.5087957 c 0.039981,-0.023767 0.08204,-0.042169 0.124307,-0.056383 L 9.6309991,4.080816 C 9.9275341,3.9042689 10.024123,3.5234039 9.8475734,3.2268731 9.6894522,2.9612935 9.3674057,2.8565557 9.0888779,2.9643209 L 6.6799128,4.4427247 6.1537086,4.7560196 c -0.021998,0.013107 -0.044382,0.023775 -0.067172,0.033914 0.019193,-0.014661 0.040058,-0.028457 0.061348,-0.041125 L 6.6752187,4.4348373 8.9936523,3.010334 c 0.030965,-0.018434 0.062801,-0.033379 0.095225,-0.046021 L 9.260253,2.8535137 C 9.5488693,2.6669204 9.6517303,2.2984906 9.4759129,2.0031865 9.3000731,1.7078929 8.9182141,1.6072983 8.6255809,1.7875287 L 6.045238,3.376739 6.0287271,3.3490094 8.2050235,2.0193635 C 8.5027316,1.8421087 8.600098,1.460082 8.4228483,1.1623725 8.2456226,0.86464874 7.8605859,0.76363327 7.5652946,0.94488338 L 5.7239588,2.0750969 6.8019816,1.4313856 C 6.9370136,1.1122665 6.7885905,0.74658195 6.4694966,0.61157657 6.2825277,0.53247179 6.0797979,0.55056344 5.9166933,0.64335098 Z"
       style="fill:#ad8968;stroke:#987052;stroke-width:0.2;stroke-linejoin:round;stroke-miterlimit:5.2;stroke-dasharray:none"
       id="path13"
       sodipodi:nodetypes="cccccccccccsccccccccccccsccccccccscsccccsccsc" /><path
       d="m 8.9958327,10.054166 c 0,0 -0.0053,0.05756 -0.4196123,1.268139 -0.035219,0.102916 -0.068093,0.198864 -0.109554,0.319361 0,0.292249 0.2369177,0.529166 0.5291663,0.529166 0.292249,0 0.529167,-0.236917 0.529167,-0.529166 -0.042063,-0.122247 -0.075463,-0.219851 -0.111104,-0.324012 -0.41274,-1.206207 -0.418063,-1.263488 -0.418063,-1.263488 z"
       style="fill:#91303e;stroke:#bf2f37;stroke-width:0.2;stroke-linejoin:round;stroke-miterlimit:5.2"
       id="path29" /><path
       d="m 10.583333,11.641667 c 0,0 -0.0053,0.05756 -0.419612,1.268139 -0.03522,0.102916 -0.06809,0.198864 -0.109554,0.319361 0,0.292249 0.236917,0.529166 0.529166,0.529166 0.292249,0 0.529167,-0.236917 0.529167,-0.529166 -0.04206,-0.122247 -0.07546,-0.219851 -0.111104,-0.324012 -0.41274,-1.206207 -0.418063,-1.263488 -0.418063,-1.263488 z"
       style="fill:#91303e;stroke:#bf2f37;stroke-width:0.2;stroke-linejoin:round;stroke-miterlimit:5.2"
       id="path30" /><path
       d="m 9.5249997,13.758333 c 0,0 -0.0053,0.05756 -0.419612,1.268139 -0.03522,0.102916 -0.06809,0.198864 -0.109554,0.319361 0,0.292249 0.236917,0.529166 0.529166,0.529166 0.292249,0 0.5291673,-0.236917 0.5291673,-0.529166 -0.04206,-0.122247 -0.07546,-0.219851 -0.1111043,-0.324012 -0.41274,-1.206207 -0.418063,-1.263488 -0.418063,-1.263488 z"
       style="fill:#91303e;stroke:#bf2f37;stroke-width:0.2;stroke-linejoin:round;stroke-miterlimit:5.2"
       id="path31" /></g></svg>
