<?xml version="1.0" encoding="UTF-8" standalone="no"?>
<!-- Created with Inkscape (http://www.inkscape.org/) -->

<svg
   width="64"
   height="64"
   viewBox="0 0 16.933333 16.933333"
   version="1.1"
   id="svg1"
   inkscape:version="1.3.2 (091e20e, 2023-11-25, custom)"
   sodipodi:docname="TrashCanOpen.svg"
   xmlns:inkscape="http://www.inkscape.org/namespaces/inkscape"
   xmlns:sodipodi="http://sodipodi.sourceforge.net/DTD/sodipodi-0.dtd"
   xmlns="http://www.w3.org/2000/svg"
   xmlns:svg="http://www.w3.org/2000/svg">
  <sodipodi:namedview
     id="namedview1"
     pagecolor="#505050"
     bordercolor="#eeeeee"
     borderopacity="1"
     inkscape:showpageshadow="0"
     inkscape:pageopacity="0"
     inkscape:pagecheckerboard="0"
     inkscape:deskcolor="#505050"
     inkscape:document-units="mm"
     showgrid="true"
     showguides="true"
     inkscape:zoom="5.7941074"
     inkscape:cx="18.812216"
     inkscape:cy="25.629487"
     inkscape:window-width="1920"
     inkscape:window-height="1009"
     inkscape:window-x="-8"
     inkscape:window-y="-8"
     inkscape:window-maximized="1"
     inkscape:current-layer="layer1">
    <inkscape:grid
       id="grid1"
       units="px"
       originx="0"
       originy="0"
       spacingx="1.0583333"
       spacingy="1.0583333"
       empcolor="#0099e5"
       empopacity="0.30196078"
       color="#0099e5"
       opacity="0.14901961"
       empspacing="5"
       dotted="false"
       gridanglex="30"
       gridanglez="30"
       visible="true"
       snapvisiblegridlinesonly="true" />
  </sodipodi:namedview>
  <defs
     id="defs1" />
  <g
     inkscape:label="Layer 1"
     inkscape:groupmode="layer"
     id="layer1">
    <rect
       style="fill:#645c59;stroke:none;stroke-width:2.12054;stroke-linejoin:round;stroke-miterlimit:5.2"
       id="rect1"
       width="11.177611"
       height="0.77907354"
       x="3.8464208"
       y="-2.9738009"
       ry="0.38953677"
       rx="0.59248704"
       transform="rotate(35.017199)" />
    <path
       d="M 8.607858,1.4634189 C 8.3338622,1.2714425 7.8933758,1.4310535 7.620043,1.8211639 L 7.928806,2.0375003 C 8.1497336,1.8293063 8.4308634,1.7628379 8.6186058,1.8943805 l 2.1125152,1.480145 c 0.187743,0.1315423 0.221263,0.4184719 0.101023,0.6972096 l 0.308764,0.2163368 c 0.273333,-0.3901103 0.272943,-0.8586233 -0.0011,-1.0505996 z"
       style="fill:#645c59;stroke-width:4.8104;stroke-linejoin:round;stroke-miterlimit:5.2"
       id="path5" />
    <path
       d="m 3.3308152,6.4107675 c -0.168638,0 -0.3043783,0.155016 -0.3043783,0.3476211 0,0.030276 0.00461,0.059362 0.010918,0.087325 h -0.010918 l 1.2901442,9.5919054 h 7.7383459 l 1.290145,-9.5919057 h -0.0109 c 0.0063,-0.027964 0.0109,-0.057049 0.0109,-0.087325 0,-0.1926051 -0.135741,-0.3476211 -0.304379,-0.3476211 z m 0.4853259,0.3887646 h 8.7392269 c 0.151774,0 0.273729,0.143079 0.273729,0.3207519 0,0.027929 -0.0039,0.054392 -0.0096,0.080188 h 0.0096 l -1.161254,8.848382 H 4.7036663 L 3.5424106,7.2004718 h 0.00966 c -0.00569,-0.025796 -0.00966,-0.05226 -0.00966,-0.080188 0,-0.1776728 0.1219566,-0.3207518 0.2737305,-0.3207517 z"
       style="fill:#645c59;stroke:#645c59;stroke-width:0.162485;stroke-linejoin:round;stroke-miterlimit:5.2;stroke-dasharray:none"
       id="path9" />
    <path
       d="M 6.2247193,15.694536 H 6.6655438 L 5.574819,7.3848014 H 5.1071261 Z"
       style="fill:#645c59;stroke:#645c59;stroke-width:0.162485;stroke-linejoin:round;stroke-miterlimit:5.2;stroke-dasharray:none"
       id="path11" />
    <rect
       style="fill:#645c59;stroke:#645c59;stroke-width:0.162485;stroke-linejoin:round;stroke-miterlimit:5.2;stroke-dasharray:none"
       id="rect12"
       width="0.48280627"
       height="8.2413931"
       x="7.9443517"
       y="7.3624382"
       rx="0"
       ry="0" />
    <path
       d="M 10.14679,15.694536 H 9.7059651 L 10.796689,7.3848016 h 0.467694 z"
       style="fill:#645c59;stroke:#645c59;stroke-width:0.162485;stroke-linejoin:round;stroke-miterlimit:5.2;stroke-dasharray:none"
       id="path13" />
  </g>
</svg>
