<?xml version="1.0" encoding="UTF-8" standalone="no"?>
<!-- Created with Inkscape (http://www.inkscape.org/) -->

<svg
   width="64"
   height="64"
   viewBox="0 0 16.933333 16.933333"
   version="1.1"
   id="svg1"
   inkscape:version="1.3.2 (091e20e, 2023-11-25, custom)"
   sodipodi:docname="Usages.svg"
   xmlns:inkscape="http://www.inkscape.org/namespaces/inkscape"
   xmlns:sodipodi="http://sodipodi.sourceforge.net/DTD/sodipodi-0.dtd"
   xmlns="http://www.w3.org/2000/svg"
   xmlns:svg="http://www.w3.org/2000/svg">
  <sodipodi:namedview
     id="namedview1"
     pagecolor="#505050"
     bordercolor="#eeeeee"
     borderopacity="1"
     inkscape:showpageshadow="0"
     inkscape:pageopacity="0"
     inkscape:pagecheckerboard="0"
     inkscape:deskcolor="#505050"
     inkscape:document-units="mm"
     showgrid="true"
     showguides="true"
     inkscape:zoom="5.7941075"
     inkscape:cx="4.7462012"
     inkscape:cy="41.162509"
     inkscape:window-width="1920"
     inkscape:window-height="1009"
     inkscape:window-x="-8"
     inkscape:window-y="-8"
     inkscape:window-maximized="1"
     inkscape:current-layer="layer1">
    <inkscape:grid
       id="grid1"
       units="px"
       originx="0"
       originy="0"
       spacingx="1.0583333"
       spacingy="1.0583333"
       empcolor="#0099e5"
       empopacity="0.30196078"
       color="#0099e5"
       opacity="0.14901961"
       empspacing="5"
       dotted="false"
       gridanglex="30"
       gridanglez="30"
       visible="true"
       snapvisiblegridlinesonly="true" />
  </sodipodi:namedview>
  <defs
     id="defs1" />
  <g
     inkscape:label="Layer 1"
     inkscape:groupmode="layer"
     id="layer1">
    <path
       d="M 10.567443,0.71985844 C 10.432496,1.9496775 9.543368,2.8948531 8.457466,2.8948531 c -1.0804504,0 -1.9657131,-0.9358192 -2.1075244,-2.15659373 A 8.0402548,8.0402548 0 0 0 4.371224,1.5791837 C 5.1471701,2.5305662 5.2018647,3.815735 4.4503482,4.5908091 3.697368,5.3673947 2.4075273,5.3505492 1.4319757,4.6000096 A 8.0402548,8.0402548 0 0 0 0.71985826,6.3683427 C 1.9406326,6.5101544 2.8764518,7.395417 2.8764518,8.4758671 c 0,1.0804504 -0.9358192,1.9657119 -2.15659354,2.1075239 a 8.0402548,8.0402548 0 0 0 0.84092434,1.978718 c 0.951382,-0.775946 2.2365504,-0.830642 3.0116253,-0.07912 0.7765847,0.75298 0.7596809,2.042823 0.0092,3.018373 a 8.0402548,8.0402548 0 0 0 1.7683349,0.712114 c 0.1418113,-1.220776 1.027074,-2.156594 2.1075232,-2.156594 1.0804504,0 1.965712,0.935818 2.107524,2.156593 a 8.0402548,8.0402548 0 0 0 1.978718,-0.840925 c -0.775946,-0.951383 -0.830642,-2.236551 -0.07912,-3.011625 0.752978,-0.776586 2.042822,-0.75968 3.018372,-0.0093 a 8.0402548,8.0402548 0 0 0 0.712117,-1.768334 C 14.974301,10.44152 14.038483,9.5562594 14.038483,8.475809 c 0,-1.0859023 0.945174,-1.975029 2.174994,-2.1099778 A 8.0402548,8.0402548 0 0 0 15.37071,4.3767445 c -0.95294,0.7887 -2.24868,0.8478153 -3.028186,0.092005 -0.78011,-0.7563961 -0.760041,-2.0547826 6.13e-4,-3.0318664 A 8.0402548,8.0402548 0 0 0 10.567443,0.71985844 Z M 8.4666665,5.9543209 A 2.5123457,2.5123457 0 0 1 10.979012,8.4666667 2.5123457,2.5123457 0 0 1 8.4666665,10.979012 2.5123457,2.5123457 0 0 1 5.9543208,8.4666667 2.5123457,2.5123457 0 0 1 8.4666665,5.9543209 Z"
       style="fill:#233552;stroke:#170f0b;stroke-width:0.314043;stroke-linecap:round;stroke-linejoin:round;stroke-miterlimit:5.2"
       id="path16" />
  </g>
</svg>
